<svg xmlns="http://www.w3.org/2000/svg" viewBox="0 0 500 500"><ellipse cx="250" cy="349.83" rx="242.49" ry="140" style="fill:#f5f5f5"/><path d="M432.34 387s-3.59-17.87 2.65-36.38c3.5-10.34 10.11-15.24 14.23-15.78 4.61-.61 9.38 3.67 5.43 10.52-3.75 6.52-11.22 9.29-15.26 26.16a72.6 72.6 0 0 0-2.11 15.85 1.45 1.45 0 0 1-2.2 1.24Z" style="fill:#ffc100"/><g style="opacity:.5"><path d="M432.34 387s-3.59-17.87 2.65-36.38c3.5-10.34 10.11-15.24 14.23-15.78 4.61-.61 9.38 3.67 5.43 10.52-3.75 6.52-11.22 9.29-15.26 26.16a72.6 72.6 0 0 0-2.11 15.85 1.45 1.45 0 0 1-2.2 1.24Z" style="fill:#fff"/></g><path d="M435.11 383a.29.29 0 0 0 .26-.32c-2.46-20.47 7.05-37.84 14.57-43.64a.3.3 0 0 0 .06-.41.29.29 0 0 0-.41-.05c-7.64 5.88-17.28 23.47-14.8 44.17a.28.28 0 0 0 .32.25" style="fill:#fff"/><path d="M435.53 388.86a1.46 1.46 0 0 0 2.17-.92c1-4.11 3.49-8.36 8.21-12.88 5.48-5.26 13.09-10.06 11.86-14.66s-7.28-3.49-11.51-.91-13.63 12.27-11.42 29Z" style="fill:#ffc100"/><g style="opacity:.65"><path d="M435.53 388.86a1.46 1.46 0 0 0 2.17-.92c1-4.11 3.49-8.36 8.21-12.88 5.48-5.26 13.09-10.06 11.86-14.66s-7.28-3.49-11.51-.91-13.63 12.27-11.42 29Z" style="fill:#fff"/></g><path d="M435.92 389.19a.27.27 0 0 0 .25-.27c-.51-12.53 9.84-26.55 17.3-29.19a.29.29 0 0 0 .17-.37.31.31 0 0 0-.38-.17c-7.4 2-18.75 17.12-17.66 29.69a.31.31 0 0 0 .27.31Z" style="fill:#fff"/><path d="M336.26 295.27 218.3 227.03 60.75 318.08l117.96 68.11 94.03-54.27 19.69 11.36 34.2-19.74-19.68-11.36z" style="fill:#e0e0e0"/><ellipse cx="51.53" cy="318.27" rx="14.51" ry="8.38" style="fill:#e0e0e0"/><path d="M309.82 408.19c16.74 9.43 16.91 25 .38 34.8s-43.52 10.08-60.27.65-16.91-25-.37-34.8 43.52-10.08 60.26-.65M441 385.18c16.74 9.43 16.91 25 .37 34.79s-43.51 10.08-60.26.65-16.92-25-.38-34.79 43.52-10.08 60.27-.65m-412.43 21.3 48.39 27.94 51.12-29.47-48.52-27.87z" style="fill:#e0e0e0"/><path d="m101.13 419.37 48.39 27.95 51.11-29.47-48.52-27.88z" style="fill:#e0e0e0"/><path d="M76.3 43.91a2.62 2.62 0 0 0-2.48 0l-2.91 1.67a14 14 0 0 0 .09-1.53c0-3.16-1-5.58-2.87-6.63-1.53-.89-3.47-.74-5.47.41a15 15 0 0 0-4.83 4.93c-.3-3.24-1.58-5.69-3.58-6.81s-4.29-.86-6.76.56C41.93 39.73 37.4 48.36 37.4 55.77a15 15 0 0 0 .15 2.23l-2.09 1.22C31.89 61.31 29 66.85 29 71.6c0 2.6.87 4.59 2.39 5.47a3.57 3.57 0 0 0 1.79.47 5.2 5.2 0 0 0 2.62-.79l38-22c2.18-1.25 4-4.63 4-7.52a3.69 3.69 0 0 0-1.5-3.32m36.62 5.58a1.64 1.64 0 0 0-1.31-.12c-.09 0-1.63.9-1.72.93v-.79c0-2-.69-3.62-1.88-4.31a3.52 3.52 0 0 0-3.58.26 9.3 9.3 0 0 0-2.93 2.89 5.2 5.2 0 0 0-2.29-4.08 4.39 4.39 0 0 0-4.4.36c-3.56 2-6.46 7.57-6.46 12.31a10 10 0 0 0 .09 1.37l-1.57.9c-2.29 1.32-4.16 4.88-4.16 7.93 0 1.69.57 3 1.57 3.56a2.33 2.33 0 0 0 1.22.3 3.5 3.5 0 0 0 1.72-.51l24.13-13.93a6 6 0 0 0 2.56-4.87 2.45 2.45 0 0 0-.99-2.2" style="fill:#ebebeb"/><path d="M45.26 283.66h22.41v1.83H45.26z" style="fill:#263238" transform="rotate(-63.1 56.46 284.567)"/><path d="M45.15 271.64h1.83v18.79h-1.83z" style="fill:#263238" transform="rotate(-31.76 46.053 281.016)"/><path d="M52.93 270.67v48.15a.77.77 0 0 1-.45.63 2.44 2.44 0 0 1-2.17 0 .77.77 0 0 1-.45-.63v-48.15Z" style="fill:#263238"/><circle cx="66.97" cy="255.68" r="22.36" style="fill:#ffc100"/><circle cx="66.97" cy="255.68" r="22.36" style="opacity:.30000000000000004"/><path d="M74 250c2.88-9.08 6-12.63 4-13.74a22.36 22.36 0 1 0 6.24 33.69c-6.65 1.9-14-8.21-10.24-19.95" style="opacity:.15"/><circle cx="31.74" cy="262.01" r="15.72" style="fill:#ffc100" transform="rotate(-9.22 31.741 261.943)"/><circle cx="31.74" cy="262.01" r="15.72" style="opacity:.30000000000000004" transform="rotate(-9.22 31.741 261.943)"/><path d="M31.74 246.29a15.64 15.64 0 0 0-9.19 3c-.42 9.6 7.73 19 5.45 22.11s-7.89 1.21-9.85-1.46a15.72 15.72 0 1 0 13.59-23.62Z" style="opacity:.15"/><path d="M80.23 245.06a28.84 28.84 0 1 1-28.84-28.83 28.84 28.84 0 0 1 28.84 28.83" style="fill:#ffc100"/><path d="M80.23 245.06a28.84 28.84 0 1 1-28.84-28.83 28.84 28.84 0 0 1 28.84 28.83" style="opacity:.2"/><path d="M79.46 251.65a28.83 28.83 0 1 1-49.17-26.24c2-2.15 2.13-2.24.16-.16a29.2 29.2 0 0 0-.76 6.58 28.83 28.83 0 0 0 49.77 19.82" style="opacity:.1"/><path d="M179.38 356.24 74.35 295.6l-.05-194.68 105.02 60.63z" style="fill:#ffc100"/><g style="opacity:.30000000000000004"><path d="M179.38 356.24 74.35 295.6l-.05-194.68 105.02 60.63z" style="fill:#fff"/></g><path d="M179.38 377.15v-14.64L74.35 301.88v14.63z" style="fill:#37474f"/><path d="M179.38 377.15v-14.64L74.35 301.88v14.63z" style="fill:#ffc100"/><path d="M179.38 377.15v-14.64L74.35 301.88v14.63z" style="opacity:.30000000000000004"/><path d="m179.38 356.24 141.23-81.54-.05-194.69-141.24 81.54z" style="fill:#ffc100"/><g style="opacity:.5"><path d="m179.38 356.24 141.23-81.54-.05-194.69-141.24 81.54z" style="fill:#fff"/></g><path d="M179.38 377.15v-14.64l141.23-81.54v14.63z" style="fill:#ffc100"/><path d="M179.38 377.15v-14.64l141.23-81.54v14.63z" style="opacity:.15"/><path d="M179.38 358.33 70.73 295.6v6.28l108.65 62.72z" style="fill:#ffc100"/><g style="opacity:.4"><path d="M179.38 358.33 70.73 295.6v6.28l108.65 62.72z" style="fill:#fff"/></g><path d="M324.23 274.7v6.27L179.38 364.6v-6.27z" style="fill:#ffc100"/><g style="opacity:.6000000000000001"><path d="M324.23 274.7v6.27L179.38 364.6v-6.27z" style="fill:#fff"/></g><path d="M320.61 272.61v2.09l-141.23 81.54-106.84-61.68-1.81 1.04 108.65 62.73 144.85-83.63z" style="fill:#ffc100"/><g style="opacity:.8"><path d="M320.61 272.61v2.09l-141.23 81.54-106.84-61.68-1.81 1.04 108.65 62.73 144.85-83.63z" style="fill:#fff"/></g><path d="M179.38 358.33v-2.09L74.35 295.6v-2.09l-3.62 2.09z" style="fill:#ffc100"/><g style="opacity:.6000000000000001"><path d="M179.38 358.33v-2.09L74.35 295.6v-2.09l-3.62 2.09z" style="fill:#fff"/></g><path d="M295.37 245.82v42.46l-25.65 14.81-.01-42.46z" style="fill:#ffc100"/><path d="m288.99 284.59 7.24 4.18-26.52 15.31.01-8.36z" style="fill:#ffc100"/><path d="m288.99 284.59 7.24 4.18-26.52 15.31.01-8.36z" style="fill:#fafafa"/><path d="m288.99 284.59-19.27 11.13-.01-35.09 19.28-11.16zm6.38 3.69.86.49v-43.45l-.86.5z" style="fill:#ffc100"/><g style="opacity:.4"><path d="m295.37 288.28.86.49v-43.45l-.86.5z" style="fill:#fff"/></g><path d="m295.37 288.28.86.49v-43.45l-.86.5z" style="opacity:.1"/><path d="m296.23 288.77 3.42-1.97v-47.4l-33.36 19.25v47.41l3.42-1.98v-43.45l26.52-15.31z" style="fill:#ffc100"/><g style="opacity:.7000000000000001"><path d="m296.23 288.77 3.42-1.97v-47.4l-33.36 19.25v47.41l3.42-1.98v-43.45l26.52-15.31z" style="fill:#fff"/></g><path d="m299.65 239.4-33.36 19.25-.85-.49 33.36-19.26z" style="fill:#ffc100"/><g style="opacity:.85"><path d="m299.65 239.4-33.36 19.25-.85-.49 33.36-19.26z" style="fill:#fff"/></g><path d="M266.29 306.06v-47.41l-.85-.49v47.41z" style="fill:#ffc100"/><g style="opacity:.6000000000000001"><path d="M265.44 258.16v47.41l.85.49v-47.41" style="fill:#fff"/></g><path d="M277.65 256.05v35.09l11.34-6.55V249.5z" style="fill:#455a64"/><path d="M278.1 272.35a.9.9 0 0 1 .4-.7c.22-.12.4 0 .4.24a.88.88 0 0 1-.24.56v.34a.27.27 0 0 1-.14.23c-.08.05-.14 0-.14-.08v-.33c-.18.04-.28-.07-.28-.26" style="fill:#263238"/><path d="m282.14 255.24-2.9 1.67v13.28l2.9-1.67zm4.79-2.77-2.89 1.67v13.28l2.89-1.67z" style="fill:#ffc100"/><path d="m282.14 268.52.46.26-3.36 1.94v-.53zm4.79-2.77.46.26-3.35 1.94-.46-.27z" style="fill:#263238"/><path d="M286.93 265.75v-13.29l.46-.27v13.82z" style="fill:#37474f"/><path d="m282.6 268.78 1.44-.83v-13.81l-1.44.83z" style="fill:#455a64"/><path d="m282.6 268.78-.46-.26v-13.28l.46-.27z" style="fill:#37474f"/><path d="m282.6 270.99-3.36 1.93v14.87l3.36-1.94z" style="opacity:.1"/><path d="m282.27 272.06-2.29 1.32v13.1l2.29-1.33z" style="fill:#455a64"/><path d="m279.24 272.92.74.46v13.1l-.74 1.31zm3.36-1.93-.33 1.07v13.09l.33.7z" style="fill:#37474f"/><path d="m282.6 285.85-.33-.7-2.29 1.33-.74 1.31z" style="fill:#263238"/><path d="m287.39 268.21-3.35 1.94v14.86l3.35-1.93z" style="opacity:.1"/><path d="m287.07 269.28-2.29 1.32v13.1l2.29-1.32z" style="fill:#455a64"/><path d="m284.04 270.15.74.45v13.1l-.74 1.31zm3.35-1.94-.32 1.07v13.1l.32.7z" style="fill:#37474f"/><path d="m287.39 283.08-.32-.7-2.29 1.32-.74 1.31zm-10.24 8.34.5-.28v-35.09l-.49.28z" style="fill:#263238"/><path d="m270.09 260.41-.38.22v35.09l7.43-4.29v-35.1Z" style="fill:#455a64"/><path d="M275.85 273.69a.9.9 0 0 1 .4-.7c.23-.13.41 0 .41.23a.9.9 0 0 1-.25.57v.33a.32.32 0 0 1-.13.24c-.07 0-.13 0-.13-.08V274c-.15 0-.3-.12-.3-.31" style="fill:#263238"/><path d="M270.3 262.06v13.28l-.59.34V262.4zm4.8-2.77-2.9 1.67v13.28l2.9-1.67z" style="fill:#ffc100"/><path d="m270.76 275.61-1.05.61v-.54l.59-.34zm4.34-3.04.46.26-3.35 1.94-.46-.27z" style="fill:#263238"/><path d="M275.1 272.57v-13.29l.46-.26v13.81z" style="fill:#37474f"/><path d="m270.76 275.61 1.45-.84v-13.81l-1.45.84z" style="fill:#455a64"/><path d="m270.76 275.61-.45-.27v-13.28l.45-.26z" style="fill:#37474f"/><path d="M270.76 277.81v14.87l-1.04.6v-14.87z" style="opacity:.1"/><path d="M270.44 278.88v13.1l-.72.42v-13.1z" style="fill:#455a64"/><path d="m270.76 277.81-.32 1.07v13.1l.32.69z" style="fill:#37474f"/><path d="m270.76 292.68-1.04.6v-.88l.72-.42z" style="fill:#263238"/><path d="m275.56 275.04-3.35 1.93v14.87l3.35-1.94z" style="opacity:.1"/><path d="m275.24 276.11-2.29 1.32v13.09l2.29-1.32z" style="fill:#455a64"/><path d="m272.21 276.97.74.46v13.09l-.74 1.32zm3.35-1.93-.32 1.07v13.09l.32.7z" style="fill:#37474f"/><path d="m275.56 289.9-.32-.7-2.29 1.32-.74 1.32z" style="fill:#263238"/><path d="M288.99 249.5v3.92l-19.28 11.16v-3.95z" style="opacity:.1"/><path d="M271.72 305.01v6.28l-1.81 1.04v12.55l19.92 11.5v-4.19l-3.62-2.09v-4.18l-3.62-2.09v-4.18l-3.62-2.09v-4.18l-3.63-2.09v-4.19z" style="fill:#ebebeb"/><path d="m296 288.9-26.09 15.07 5.44 3.13 26.1-15.05zm5.45 7.33-26.11 15.06 3.62 2.09 26.11-15.06zm3.62 6.27-26.11 15.06 3.62 2.09 26.11-15.06zm3.62 6.27-26.11 15.06 3.62 2.09 26.11-15.05zm3.62 6.28L286.2 330.1l3.63 2.09 26.1-15.05z" style="fill:#fafafa"/><path d="m301.45 292.05-26.1 15.05-.01 4.19 26.11-15.06zm3.62 6.27-26.1 15.06-.01 4.18 26.11-15.06zm3.62 6.27-26.1 15.06v4.18l26.1-15.06zm7.24 12.55-26.1 15.05v4.18l26.1-15.05zm-3.62-6.27-26.1 15.05v4.18l26.1-15.05z" style="fill:#f0f0f0"/><path d="M219.81 295.26v24.8l-18.71 10.8v-24.8z" style="fill:#ffc100"/><path d="M219.81 295.26v24.8l-18.71 10.8v-24.8z" style="opacity:.25"/><path d="m217.29 318.38-16.19 9.35v-21.67l16.19-9.35z" style="fill:#ffc100"/><g style="opacity:.9500000000000001"><path d="m217.29 318.38-16.19 9.35v-21.67l16.19-9.35z" style="fill:#fff"/></g><path d="m219.81 295.26-2.52 1.45v21.67l2.52 1.68zm-21.04 36.95 23.38-13.5 1.16.66-23.39 13.51z" style="fill:#ffc100"/><g style="opacity:.8"><path d="m198.77 332.21 23.38-13.5 1.16.66-23.39 13.51z" style="fill:#fff"/></g><path d="M199.92 332.88v2.69l23.39-13.5v-2.7z" style="fill:#ffc100"/><g style="opacity:.6000000000000001"><path d="M199.92 332.88v2.69l23.39-13.5v-2.7z" style="fill:#fff"/></g><path d="M198.77 332.21v2.7l1.15.66v-2.69z" style="fill:#ffc100"/><g style="opacity:.4"><path d="M198.77 332.21v2.7l1.15.66v-2.69z" style="fill:#fff"/></g><path d="M208.69 323.35v-21.67l1.36-.79v21.67z" style="fill:#455a64"/><path d="M252.45 276.41v24.8l-18.71 10.8v-24.8z" style="fill:#ffc100"/><path d="M252.45 276.41v24.8l-18.71 10.8v-24.8z" style="opacity:.25"/><path d="m249.93 299.54-16.19 9.34v-21.67l16.19-9.34z" style="fill:#ffc100"/><g style="opacity:.9500000000000001"><path d="m249.93 299.54-16.19 9.34v-21.67l16.19-9.34z" style="fill:#fff"/></g><path d="m252.45 276.41-2.52 1.46v21.67l2.52 1.67zm-21.04 36.95 23.38-13.5 1.16.67-23.39 13.5z" style="fill:#ffc100"/><g style="opacity:.8"><path d="m231.41 313.36 23.38-13.5 1.16.67-23.39 13.5z" style="fill:#fff"/></g><path d="M232.56 314.03v2.7l23.39-13.5v-2.7z" style="fill:#ffc100"/><g style="opacity:.6000000000000001"><path d="M232.56 314.03v2.7l23.39-13.5v-2.7z" style="fill:#fff"/></g><path d="M231.41 313.36v2.7l1.15.67v-2.7z" style="fill:#ffc100"/><g style="opacity:.4"><path d="M231.41 313.36v2.7l1.15.67v-2.7z" style="fill:#fff"/></g><path d="M241.33 304.5v-21.67l1.36-.78v21.67z" style="fill:#455a64"/><path d="M139.54 295.6v24.8l18.71 10.81v-24.8z" style="fill:#ffc100"/><path d="M139.54 295.6v24.8l18.71 10.81v-24.8z" style="opacity:.25"/><path d="m142.06 318.73 16.19 9.34v-21.66l-16.19-9.35z" style="fill:#ffc100"/><g style="opacity:.9500000000000001"><path d="m142.06 318.73 16.19 9.34v-21.66l-16.19-9.35z" style="fill:#fff"/></g><path d="m139.54 295.6 2.52 1.46v21.67l-2.52 1.67zm21.05 36.96-23.39-13.51-1.16.67 23.39 13.5z" style="fill:#ffc100"/><g style="opacity:.8"><path d="m160.59 332.56-23.39-13.51-1.16.67 23.39 13.5z" style="fill:#fff"/></g><path d="M159.43 333.22v2.7l-23.39-13.5v-2.7z" style="fill:#ffc100"/><g style="opacity:.6000000000000001"><path d="M159.43 333.22v2.7l-23.39-13.5v-2.7z" style="fill:#fff"/></g><path d="M160.59 332.56v2.69l-1.16.67v-2.7z" style="fill:#ffc100"/><g style="opacity:.4"><path d="M160.59 332.56v2.69l-1.16.67v-2.7z" style="fill:#fff"/></g><path d="M150.66 323.69v-21.67l-1.36-.78v21.67z" style="fill:#455a64"/><path d="M95.48 270.17v24.8l18.71 10.8v-24.8z" style="fill:#ffc100"/><path d="M95.48 270.17v24.8l18.71 10.8v-24.8z" style="opacity:.25"/><path d="m98 293.29 16.19 9.34v-21.66L98 271.62z" style="fill:#ffc100"/><g style="opacity:.9500000000000001"><path d="m98 293.29 16.19 9.34v-21.66L98 271.62z" style="fill:#fff"/></g><path d="m95.48 270.17 2.52 1.45v21.67l-2.52 1.68zm21.05 36.95-23.39-13.5-1.16.66 23.39 13.5z" style="fill:#ffc100"/><g style="opacity:.8"><path d="m116.53 307.12-23.39-13.5-1.16.66 23.39 13.5z" style="fill:#fff"/></g><path d="M115.37 307.78v2.71l-23.39-13.51v-2.7z" style="fill:#ffc100"/><g style="opacity:.6000000000000001"><path d="M115.37 307.78v2.71l-23.39-13.51v-2.7z" style="fill:#fff"/></g><path d="M116.53 307.12v2.7l-1.16.67v-2.71z" style="fill:#ffc100"/><g style="opacity:.4"><path d="M116.53 307.12v2.7l-1.16.67v-2.71z" style="fill:#fff"/></g><path d="M106.6 298.25v-21.66l-1.36-.79v21.67z" style="fill:#455a64"/><path d="m301.78 229.47-37.96 21.93v-8.61l37.96-21.94z" style="opacity:.15"/><path d="m263.82 242.79 37.96-21.94 10.09 5.83-37.96 21.94z" style="fill:#fafafa"/><path d="M263.82 242.79v1.46l10.09 5.82v-1.45z" style="fill:#e0e0e0"/><path d="m273.91 248.62 37.96-21.94v1.46l-37.96 21.93z" style="fill:#f0f0f0"/><path d="M295.45 182.06v42.45l-25.65 14.81-.01-42.45z" style="fill:#ffc100"/><path d="m293.42 223.16 2.89 1.85-26.52 15.31.01-3.53z" style="fill:#ffc100"/><g style="opacity:.8"><path d="m293.42 223.16 2.89 1.85-26.52 15.31.01-3.53z" style="fill:#fff"/></g><path d="m293.42 223.16-23.62 13.63-.01-39.92 23.63-13.64z" style="fill:#ffc100"/><g style="opacity:.9500000000000001"><path d="m293.42 223.16-23.62 13.63-.01-39.92 23.63-13.64z" style="fill:#fff"/></g><path d="M293.42 183.23v3.95l-23.63 13.64v-3.95z" style="opacity:.1"/><path d="m283.52 188.94-.89.52v42.45l.89-.51z" style="fill:#ffc100"/><path d="m283.52 188.94-.89.52v42.45l.89-.51z" style="opacity:.2"/><path d="M282.63 189.46v42.45l-.9-.51v-41.43z" style="fill:#ffc100"/><path d="M282.63 189.46v42.45l-.9-.51v-41.43z" style="opacity:.4"/><path d="m295.45 224.51.86.5v-43.45l-.86.5z" style="fill:#ffc100"/><g style="opacity:.4"><path d="m295.45 224.51.86.5v-43.45l-.86.5z" style="fill:#fff"/></g><path d="m295.45 224.51.86.5v-43.45l-.86.5z" style="opacity:.1"/><path d="m296.31 225.01 3.42-1.98v-47.4l-33.36 19.26v47.4l3.42-1.97v-43.45l26.52-15.31z" style="fill:#ffc100"/><g style="opacity:.7000000000000001"><path d="m296.31 225.01 3.42-1.98v-47.4l-33.36 19.26v47.4l3.42-1.97v-43.45l26.52-15.31z" style="fill:#fff"/></g><path d="m299.73 175.63-33.36 19.26-.85-.49 33.36-19.26z" style="fill:#ffc100"/><g style="opacity:.85"><path d="m299.73 175.63-33.36 19.26-.85-.49 33.36-19.26z" style="fill:#fff"/></g><path d="M266.37 242.29v-47.4l-.85-.49v47.4z" style="fill:#ffc100"/><g style="opacity:.6000000000000001"><path d="M265.52 194.4v47.4l.85.49v-47.4" style="fill:#fff"/></g><path d="M277.75 239.84c2.11 1.22 2.11 3.19 0 4.4a8.37 8.37 0 0 1-7.61 0c-2.11-1.21-2.11-3.18 0-4.4a8.43 8.43 0 0 1 7.61 0" style="opacity:.07"/><path d="M311.4 209.17a.62.62 0 0 0-.32-.54l-.3-.17-9.68-5.46a.23.23 0 0 0-.21 0 1 1 0 0 0-.38.8.45.45 0 0 0 .14.36l.3.17 8.58 4.85m.95 1.72-9.71-5.6a.12.12 0 0 0-.13 0 .41.41 0 0 0-.18.32c0 .06 0 .1.05.11l10 5.76Z" style="fill:#455a64"/><path d="m310.48 212.99-10.02-5.81v12.54l10.02 5.81z" style="opacity:.2"/><path d="m273.71 234.21 36.77-21.22v12.54l-36.77 21.22z" style="opacity:.2"/><path d="m274.09 234.21-10.47-6.07v12.55l10.47 6.06z" style="opacity:.2"/><path d="m273.92 232-10-5.76a.13.13 0 0 0-.13 0 .37.37 0 0 0-.18.31.14.14 0 0 0 .05.12l10 5.75Zm17.89-10.34 18.33-10.56a.11.11 0 0 1 .12 0 .42.42 0 0 1 .19.31.12.12 0 0 1-.06.12l-18.32 10.57Z" style="fill:#455a64"/><path d="M292.09 219.9v17.23a.13.13 0 0 1-.07.11.48.48 0 0 1-.37 0 .13.13 0 0 1-.07-.11V219.9Z" style="fill:#37474f"/><path d="m273.88 232 17.76-10.26a.16.16 0 0 1 .13 0 .39.39 0 0 1 .18.31.12.12 0 0 1-.06.12l-17.76 10.25Z" style="fill:#455a64"/><path d="M310.61 209.22v17.24s0 .07-.07.1a.4.4 0 0 1-.37 0c-.05 0-.07-.06-.07-.1v-17.24Zm-36.46 21.04v17.23a.13.13 0 0 1-.07.11.4.4 0 0 1-.37 0 .13.13 0 0 1-.07-.11v-17.23Z" style="fill:#37474f"/><path d="m309.53 209.18-35.63 20.56-9.69-5.48a.25.25 0 0 0-.22 0 1 1 0 0 0-.37.8.42.42 0 0 0 .14.36l9.82 5.55a.64.64 0 0 0 .62 0l36.88-21.28a.62.62 0 0 0 .31-.54" style="fill:#455a64"/><path d="m301.78 165.99-37.96 21.94v-8.62l37.96-21.93z" style="opacity:.15"/><path d="m263.82 179.31 37.96-21.93 10.09 5.83-37.96 21.93z" style="fill:#fafafa"/><path d="M263.82 179.31v1.46l10.09 5.83v-1.46z" style="fill:#e0e0e0"/><path d="m273.91 185.14 37.96-21.93v1.45l-37.96 21.94z" style="fill:#f0f0f0"/><path d="M295.45 118.58v42.46l-25.65 14.8-.01-42.45z" style="fill:#ffc100"/><path d="m293.42 159.68 2.89 1.85-26.52 15.31.01-3.53z" style="fill:#ffc100"/><g style="opacity:.8"><path d="m293.42 159.68 2.89 1.85-26.52 15.31.01-3.53z" style="fill:#fff"/></g><path d="m293.42 159.68-23.62 13.63-.01-39.92 23.63-13.64z" style="fill:#ffc100"/><g style="opacity:.9500000000000001"><path d="m293.42 159.68-23.62 13.63-.01-39.92 23.63-13.64z" style="fill:#fff"/></g><path d="M293.42 119.75v3.95l-23.63 13.64v-3.95z" style="opacity:.1"/><path d="m283.51 125.47-.88.51v42.45l.88-.5z" style="fill:#ffc100"/><path d="m283.51 125.47-.88.51v42.45l.88-.5z" style="opacity:.2"/><path d="M282.63 125.98v42.45l-.9-.51v-41.43z" style="fill:#ffc100"/><path d="M282.63 125.98v42.45l-.9-.51v-41.43z" style="opacity:.4"/><path d="m295.45 161.04.86.49v-43.45l-.86.5z" style="fill:#ffc100"/><g style="opacity:.4"><path d="m295.45 161.04.86.49v-43.45l-.86.5z" style="fill:#fff"/></g><path d="m295.45 161.04.86.49v-43.45l-.86.5z" style="opacity:.1"/><path d="m296.31 161.53 3.42-1.97v-47.4l-33.36 19.25v47.41l3.42-1.98v-43.45l26.52-15.31z" style="fill:#ffc100"/><g style="opacity:.7000000000000001"><path d="m296.31 161.53 3.42-1.97v-47.4l-33.36 19.25v47.41l3.42-1.98v-43.45l26.52-15.31z" style="fill:#fff"/></g><path d="m299.73 112.16-33.36 19.25-.85-.49 33.36-19.26z" style="fill:#ffc100"/><g style="opacity:.85"><path d="m299.73 112.16-33.36 19.25-.85-.49 33.36-19.26z" style="fill:#fff"/></g><path d="M266.37 178.82v-47.41l-.85-.49v47.41z" style="fill:#ffc100"/><g style="opacity:.6000000000000001"><path d="M265.52 130.92v47.41l.85.49v-47.41" style="fill:#fff"/></g><path d="M304.61 159.93c1.64.95 1.64 2.48 0 3.42a6.5 6.5 0 0 1-5.92 0c-1.64-.94-1.64-2.47 0-3.42a6.57 6.57 0 0 1 5.92 0" style="opacity:.07"/><path d="M311.4 145.7a.62.62 0 0 0-.31-.54l-.31-.17-9.69-5.48a.22.22 0 0 0-.22 0 1 1 0 0 0-.37.79.39.39 0 0 0 .14.36l.29.17 8.58 4.85m.98 1.74-9.72-5.59a.11.11 0 0 0-.12 0 .42.42 0 0 0-.19.31.12.12 0 0 0 .06.12l10 5.75Z" style="fill:#455a64"/><path d="m310.49 149.51-10.03-5.8v12.54l10.03 5.81z" style="opacity:.2"/><path d="m273.71 170.73 36.78-21.22v12.55l-36.78 21.22z" style="opacity:.2"/><path d="m274.09 170.73-10.46-6.06v12.54l10.46 6.07z" style="opacity:.2"/><path d="m273.92 168.54-10-5.75a.11.11 0 0 0-.12 0 .4.4 0 0 0-.18.31.14.14 0 0 0 .05.12l10 5.76Zm17.9-10.35 18.32-10.57a.15.15 0 0 1 .13 0 .41.41 0 0 1 .18.32.14.14 0 0 1-.05.12l-18.33 10.56Z" style="fill:#455a64"/><path d="M292.1 156.42v17.24a.14.14 0 0 1-.08.1.38.38 0 0 1-.36 0 .14.14 0 0 1-.08-.1v-17.24Z" style="fill:#37474f"/><path d="m273.88 168.54 17.76-10.25a.12.12 0 0 1 .13 0 .41.41 0 0 1 .18.32.13.13 0 0 1-.05.11L274.14 169Z" style="fill:#455a64"/><path d="M310.62 145.75V163a.14.14 0 0 1-.08.11.38.38 0 0 1-.36 0 .14.14 0 0 1-.08-.11v-17.25Zm-36.46 21.03V184s0 .07-.08.1a.38.38 0 0 1-.36 0c-.05 0-.08-.06-.08-.1v-17.22Z" style="fill:#37474f"/><path d="m309.53 145.7-35.63 20.56-9.68-5.48a.2.2 0 0 0-.21 0 1 1 0 0 0-.37.79.42.42 0 0 0 .13.36l9.83 5.56a.64.64 0 0 0 .3.08.56.56 0 0 0 .31-.09l36.88-21.27a.63.63 0 0 0 .31-.54" style="fill:#455a64"/><path d="m237.36 262.43-37.96 21.93v-8.61l37.96-21.94z" style="opacity:.15"/><path d="m199.4 275.75 37.96-21.94 10.09 5.83-37.96 21.93z" style="fill:#fafafa"/><path d="M199.4 275.75v1.45l10.09 5.83v-1.46z" style="fill:#e0e0e0"/><path d="m209.49 281.57 37.96-21.93v1.46l-37.96 21.93z" style="fill:#f0f0f0"/><path d="M231.03 215.01v42.46l-25.65 14.81v-42.46z" style="fill:#ffc100"/><path d="m229 256.11 2.89 1.86-26.51 15.31v-3.53z" style="fill:#ffc100"/><g style="opacity:.8"><path d="m229 256.11 2.89 1.86-26.51 15.31v-3.53z" style="fill:#fff"/></g><path d="m229 256.11-23.62 13.64v-39.93L229 216.19z" style="fill:#ffc100"/><g style="opacity:.9500000000000001"><path d="m229 256.11-23.62 13.64-.01-39.93L229 216.19z" style="fill:#fff"/></g><path d="M229 216.19v3.95l-23.63 13.63v-3.95z" style="opacity:.1"/><path d="m219.1 221.9-.89.51v42.46l.89-.51z" style="fill:#ffc100"/><path d="m219.1 221.9-.89.51v42.46l.89-.51z" style="opacity:.2"/><path d="M218.21 222.41v42.46l-.9-.51v-41.43z" style="fill:#ffc100"/><path d="M218.21 222.41v42.46l-.9-.51v-41.43z" style="opacity:.4"/><path d="m231.03 257.47.86.5v-43.46l-.86.5z" style="fill:#ffc100"/><g style="opacity:.4"><path d="m231.03 257.47.86.5v-43.46l-.86.5z" style="fill:#fff"/></g><path d="m231.03 257.47.86.5v-43.46l-.86.5z" style="opacity:.1"/><path d="m231.89 257.97 3.42-1.98v-47.4l-33.36 19.26v47.4l3.43-1.97v-43.46l26.51-15.31z" style="fill:#ffc100"/><g style="opacity:.7000000000000001"><path d="m231.89 257.97 3.42-1.98v-47.4l-33.36 19.26v47.4l3.43-1.97v-43.46l26.51-15.31z" style="fill:#fff"/></g><path d="m235.31 208.59-33.36 19.26-.85-.49 33.36-19.26z" style="fill:#ffc100"/><g style="opacity:.85"><path d="m235.31 208.59-33.36 19.26-.85-.49 33.36-19.26z" style="fill:#fff"/></g><path d="M201.95 275.25v-47.4l-.85-.49v47.4z" style="fill:#ffc100"/><g style="opacity:.6000000000000001"><path d="M201.1 227.36v47.4l.85.49v-47.4" style="fill:#fff"/></g><path d="M213.33 272.8c2.11 1.22 2.11 3.18 0 4.4a8.43 8.43 0 0 1-7.61 0c-2.11-1.22-2.11-3.18 0-4.4a8.43 8.43 0 0 1 7.61 0" style="opacity:.07"/><path d="M247 242.13a.62.62 0 0 0-.32-.54l-.3-.17-9.68-5.47a.2.2 0 0 0-.21 0 1 1 0 0 0-.37.8.45.45 0 0 0 .13.36l.3.17 8.58 4.85m.93 1.73-9.71-5.6a.12.12 0 0 0-.13 0 .41.41 0 0 0-.18.32.13.13 0 0 0 .05.11l10 5.76Z" style="fill:#455a64"/><path d="m246.06 245.95-10.02-5.81v12.54l10.02 5.81z" style="opacity:.2"/><path d="m209.29 267.17 36.77-21.22v12.54l-36.77 21.22z" style="opacity:.2"/><path d="m209.67 267.17-10.47-6.07v12.55l10.47 6.06z" style="opacity:.2"/><path d="m209.5 265-10-5.76a.15.15 0 0 0-.13 0 .41.41 0 0 0-.18.32.14.14 0 0 0 .05.12l10 5.75Zm17.89-10.38 18.33-10.56a.12.12 0 0 1 .13 0 .4.4 0 0 1 .18.31.12.12 0 0 1-.06.12l-18.32 10.56Z" style="fill:#455a64"/><path d="M227.67 252.86v17.23a.1.1 0 0 1-.07.1.38.38 0 0 1-.36 0 .11.11 0 0 1-.08-.1v-17.23Z" style="fill:#37474f"/><path d="m209.46 265 17.76-10.26a.13.13 0 0 1 .13 0 .37.37 0 0 1 .18.31.12.12 0 0 1-.06.12l-17.76 10.25Z" style="fill:#455a64"/><path d="M246.19 242.18v17.24a.13.13 0 0 1-.07.1.38.38 0 0 1-.36 0 .14.14 0 0 1-.08-.1v-17.24Zm-36.46 21.04v17.23a.13.13 0 0 1-.07.11.4.4 0 0 1-.37 0 .13.13 0 0 1-.07-.11v-17.23Z" style="fill:#37474f"/><path d="m245.11 242.14-35.63 20.56-9.69-5.48a.2.2 0 0 0-.21 0 1 1 0 0 0-.38.8.42.42 0 0 0 .14.36l9.82 5.55a.6.6 0 0 0 .31.08.7.7 0 0 0 .31-.08l36.88-21.28a.63.63 0 0 0 .31-.54" style="fill:#455a64"/><path d="m237.36 198.95-37.96 21.93v-8.61l37.96-21.93z" style="opacity:.15"/><path d="m199.4 212.27 37.96-21.93 10.09 5.83-37.96 21.93z" style="fill:#fafafa"/><path d="M199.4 212.27v1.46l10.09 5.83v-1.46z" style="fill:#e0e0e0"/><path d="m209.49 218.1 37.96-21.93v1.45l-37.96 21.94z" style="fill:#f0f0f0"/><path d="M231.03 151.54V194l-25.65 14.8-.01-42.45z" style="fill:#ffc100"/><path d="m229 192.64 2.89 1.85-26.52 15.31.01-3.53z" style="fill:#ffc100"/><g style="opacity:.8"><path d="m229 192.64 2.89 1.85-26.52 15.31.01-3.53z" style="fill:#fff"/></g><path d="m229 192.64-23.62 13.63-.01-39.92L229 152.71z" style="fill:#ffc100"/><g style="opacity:.9500000000000001"><path d="m229 192.64-23.62 13.63-.01-39.92L229 152.71z" style="fill:#fff"/></g><path d="M229 152.71v3.95l-23.63 13.64v-3.95z" style="opacity:.1"/><path d="m219.1 158.42-.89.52v42.45l.89-.51z" style="fill:#ffc100"/><path d="m219.1 158.42-.89.52v42.45l.89-.51z" style="opacity:.2"/><path d="M218.21 158.94v42.45l-.9-.51v-41.43z" style="fill:#ffc100"/><path d="M218.21 158.94v42.45l-.9-.51v-41.43z" style="opacity:.4"/><path d="m231.03 194 .86.49v-43.45l-.86.5z" style="fill:#ffc100"/><g style="opacity:.4"><path d="m231.03 194 .86.49v-43.45l-.86.5z" style="fill:#fff"/></g><path d="m231.03 194 .86.49v-43.45l-.86.5z" style="opacity:.1"/><path d="m231.89 194.49 3.42-1.97v-47.41l-33.36 19.26v47.41l3.42-1.98v-43.45l26.52-15.31z" style="fill:#ffc100"/><g style="opacity:.7000000000000001"><path d="m231.89 194.49 3.42-1.97v-47.41l-33.36 19.26v47.41l3.42-1.98v-43.45l26.52-15.31z" style="fill:#fff"/></g><path d="m235.31 145.11-33.36 19.26-.85-.49 33.36-19.26z" style="fill:#ffc100"/><g style="opacity:.85"><path d="m235.31 145.11-33.36 19.26-.85-.49 33.36-19.26z" style="fill:#fff"/></g><path d="M201.95 211.78v-47.41l-.85-.49v47.41z" style="fill:#ffc100"/><g style="opacity:.6000000000000001"><path d="M201.1 163.88v47.41l.85.49v-47.41" style="fill:#fff"/></g><path d="M240.19 192.89c1.64 1 1.64 2.48 0 3.42a6.5 6.5 0 0 1-5.92 0c-1.63-.94-1.63-2.47 0-3.42a6.57 6.57 0 0 1 5.92 0" style="opacity:.07"/><path d="M247 178.66a.62.62 0 0 0-.31-.54l-.3-.17-9.69-5.48a.22.22 0 0 0-.22 0 1 1 0 0 0-.37.79.41.41 0 0 0 .14.36l.29.17 8.58 4.85m.95 1.74-9.72-5.6a.14.14 0 0 0-.12 0 .4.4 0 0 0-.19.31.14.14 0 0 0 .06.12l10 5.75Z" style="fill:#455a64"/><path d="m246.07 182.47-10.03-5.81v12.55l10.03 5.81z" style="opacity:.2"/><path d="m209.29 203.69 36.78-21.22v12.55l-36.78 21.22z" style="opacity:.2"/><path d="m209.67 203.69-10.46-6.06v12.54l10.46 6.07z" style="opacity:.2"/><path d="m209.5 201.5-10-5.75a.12.12 0 0 0-.13 0 .4.4 0 0 0-.18.31.14.14 0 0 0 0 .12l10 5.75Zm17.9-10.35 18.32-10.57a.12.12 0 0 1 .13 0 .41.41 0 0 1 .18.32c0 .05 0 .1-.05.11l-18.32 10.57Z" style="fill:#455a64"/><path d="M227.68 189.38v17.23a.14.14 0 0 1-.08.11.38.38 0 0 1-.36 0 .13.13 0 0 1-.07-.11v-17.23Z" style="fill:#37474f"/><path d="m209.46 201.5 17.76-10.25a.12.12 0 0 1 .13 0 .4.4 0 0 1 .18.31.14.14 0 0 1-.05.12l-17.76 10.25Z" style="fill:#455a64"/><path d="M246.2 178.71v17.23a.14.14 0 0 1-.08.11.45.45 0 0 1-.36 0 .13.13 0 0 1-.07-.11v-17.23Zm-36.46 21.03V217s0 .07-.08.1a.38.38 0 0 1-.36 0c-.05 0-.08-.06-.08-.1v-17.26Z" style="fill:#37474f"/><path d="m245.11 178.66-35.63 20.56-9.68-5.48a.22.22 0 0 0-.22 0 1 1 0 0 0-.37.79.43.43 0 0 0 .13.36l9.83 5.56a.64.64 0 0 0 .3.08.6.6 0 0 0 .32-.09l36.87-21.27a.64.64 0 0 0 .31-.54" style="fill:#455a64"/><path d="m96.33 247.95 59.87 34.62v-8.61l-59.87-34.62z" style="opacity:.15"/><path d="m156.2 273.93-60.38-34.91-10.1 5.83 60.38 34.91z" style="fill:#fafafa"/><path d="M156.2 273.93v1.46l-10.1 5.83v-1.46z" style="fill:#e0e0e0"/><path d="m146.1 279.76-60.38-34.91v1.46l60.38 34.91z" style="fill:#f0f0f0"/><path d="M113.6 206.85v42.46l25.64 14.81.01-42.46z" style="fill:#ffc100"/><path d="m115.63 247.95-2.9 1.86 26.52 15.31-.01-3.53z" style="fill:#ffc100"/><g style="opacity:.8"><path d="m115.63 247.95-2.9 1.86 26.52 15.31-.01-3.53z" style="fill:#fff"/></g><path d="m115.63 247.95 23.61 13.64.01-39.93-23.62-13.63z" style="fill:#ffc100"/><g style="opacity:.9500000000000001"><path d="m115.63 247.95 23.61 13.64.01-39.93-23.62-13.63z" style="fill:#fff"/></g><path d="M115.63 208.03v3.94l23.62 13.64v-3.95z" style="opacity:.1"/><path d="m125.53 213.74.89.51v42.45l-.89-.5z" style="fill:#ffc100"/><path d="m125.53 213.74.89.51v42.45l-.89-.5z" style="opacity:.2"/><path d="M126.42 214.25v42.45l.89-.51v-41.43z" style="fill:#ffc100"/><path d="M126.42 214.25v42.45l.89-.51v-41.43z" style="opacity:.4"/><path d="m113.6 249.31-.87.5v-43.46l.87.5z" style="fill:#ffc100"/><g style="opacity:.4"><path d="m113.6 249.31-.87.5v-43.46l.87.5z" style="fill:#fff"/></g><path d="m113.6 249.31-.87.5v-43.46l.87.5z" style="opacity:.1"/><path d="m112.73 249.81-3.42-1.98v-47.4l33.36 19.26v47.4l-3.42-1.97v-43.46l-26.52-15.31z" style="fill:#ffc100"/><g style="opacity:.7000000000000001"><path d="m112.73 249.81-3.42-1.98v-47.4l33.36 19.26v47.4l-3.42-1.97v-43.46l-26.52-15.31z" style="fill:#fff"/></g><path d="m109.31 200.43 33.36 19.26.85-.5-33.36-19.25z" style="fill:#ffc100"/><g style="opacity:.85"><path d="m109.31 200.43 33.36 19.26.85-.5-33.36-19.25z" style="fill:#fff"/></g><path d="M142.67 267.09v-47.4l.85-.5v47.41z" style="fill:#ffc100"/><g style="opacity:.6000000000000001"><path d="M143.52 219.19v47.41l-.85.49v-47.4" style="fill:#fff"/></g><path d="M86.14 227.31a.62.62 0 0 1 .32-.54l.3-.17 9.68-5.48a.2.2 0 0 1 .21 0 1 1 0 0 1 .38.8.45.45 0 0 1-.14.36l-.3.17-8.59 4.87m-.94 1.68 9.71-5.6a.12.12 0 0 1 .13 0 .41.41 0 0 1 .18.32.13.13 0 0 1 0 .11l-10 5.76Z" style="fill:#455a64"/><path d="m87.06 231.13 10.02-5.81v12.54l-10.02 5.81z" style="opacity:.2"/><path d="M96.58 244.54c-1.64 1-1.64 2.48 0 3.42a6.5 6.5 0 0 0 5.92 0c1.64-.94 1.64-2.47 0-3.42a6.57 6.57 0 0 0-5.92 0" style="opacity:.07"/><path d="m146.31 265.35-59.25-34.22v12.54l59.25 34.23z" style="opacity:.2"/><path d="m145.93 265.35 10.47-6.06v12.54l-10.47 6.07z" style="opacity:.2"/><path d="m146.1 263.16 10-5.75a.11.11 0 0 1 .12 0 .4.4 0 0 1 .18.31.14.14 0 0 1 0 .12l-10 5.76Zm-28.87-16.7L87.4 229.24a.11.11 0 0 0-.12 0 .42.42 0 0 0-.19.31.12.12 0 0 0 .06.12L117 246.9Z" style="fill:#455a64"/><path d="M117 244.69v17.24a.14.14 0 0 0 .08.1.38.38 0 0 0 .36 0 .13.13 0 0 0 .07-.1v-17.24Z" style="fill:#37474f"/><path d="m146.14 263.16-28.73-16.6a.12.12 0 0 0-.13 0 .4.4 0 0 0-.18.31.14.14 0 0 0 .05.12l28.73 16.61Z" style="fill:#455a64"/><path d="M86.93 227.36v17.24s0 .07.07.1a.4.4 0 0 0 .37 0s.07-.06.07-.1v-17.24Zm58.93 34.04v17.24a.11.11 0 0 0 .08.1.38.38 0 0 0 .36 0 .11.11 0 0 0 .08-.1V261.4Z" style="fill:#37474f"/><path d="m88 227.32 58.11 33.56 9.68-5.48a.2.2 0 0 1 .21 0 1 1 0 0 1 .37.79.42.42 0 0 1-.13.36l-9.83 5.56a.64.64 0 0 1-.3.08.56.56 0 0 1-.31-.09l-59.35-34.25a.63.63 0 0 1-.31-.54" style="fill:#455a64"/><path d="m95.66 184.09 60.54 34.99v-8.61l-60.54-35.01z" style="opacity:.15"/><path d="m156.2 210.46-60.38-34.91-10.1 5.83 60.38 34.91z" style="fill:#fafafa"/><path d="M156.2 210.46v1.46l-10.1 5.83v-1.46z" style="fill:#e0e0e0"/><path d="m146.1 216.29-60.38-34.91v1.46l60.38 34.91z" style="fill:#f0f0f0"/><path d="M113.6 143.38v42.46l25.64 14.81.01-42.45z" style="fill:#ffc100"/><path d="m115.63 184.49-2.9 1.85 26.52 15.31-.01-3.53z" style="fill:#ffc100"/><g style="opacity:.8"><path d="m115.63 184.49-2.9 1.85 26.52 15.31-.01-3.53z" style="fill:#fff"/></g><path d="m115.63 184.49 23.61 13.63.01-39.92-23.62-13.64z" style="fill:#ffc100"/><g style="opacity:.9500000000000001"><path d="m115.63 184.49 23.61 13.63.01-39.92-23.62-13.64z" style="fill:#fff"/></g><path d="M115.63 144.56v3.95l23.62 13.64v-3.95z" style="opacity:.1"/><path d="m125.53 150.27.89.52v42.45l-.89-.51z" style="fill:#ffc100"/><path d="m125.53 150.27.89.52v42.45l-.89-.51z" style="opacity:.2"/><path d="M126.42 150.79v42.45l.89-.51V151.3z" style="fill:#ffc100"/><path d="M126.42 150.79v42.45l.89-.51V151.3z" style="opacity:.4"/><path d="m113.6 185.84-.87.5v-43.45l.87.49z" style="fill:#ffc100"/><g style="opacity:.4"><path d="m113.6 185.84-.87.5v-43.45l.87.49z" style="fill:#fff"/></g><path d="m113.6 185.84-.87.5v-43.45l.87.49z" style="opacity:.1"/><path d="m112.73 186.34-3.42-1.98v-47.4l33.36 19.26v47.41l-3.42-1.98V158.2l-26.52-15.31z" style="fill:#ffc100"/><g style="opacity:.7000000000000001"><path d="m112.73 186.34-3.42-1.98v-47.4l33.36 19.26v47.41l-3.42-1.98V158.2l-26.52-15.31z" style="fill:#fff"/></g><path d="m109.31 136.96 33.36 19.26.85-.49-33.36-19.26z" style="fill:#ffc100"/><g style="opacity:.85"><path d="m109.31 136.96 33.36 19.26.85-.49-33.36-19.26z" style="fill:#fff"/></g><path d="M142.67 203.63v-47.41l.85-.49v47.4z" style="fill:#ffc100"/><g style="opacity:.6000000000000001"><path d="M143.52 155.73v47.4l-.85.5v-47.41" style="fill:#fff"/></g><ellipse cx="146.07" cy="209.72" rx="5.39" ry="3.11" style="opacity:.07"/><path d="M86.14 163.85a.62.62 0 0 1 .32-.54l.3-.17 9.68-5.48a.2.2 0 0 1 .21 0 1 1 0 0 1 .38.79.42.42 0 0 1-.14.36l-.3.17-8.59 4.87m-.94 1.72 9.71-5.57a.12.12 0 0 1 .13 0 .4.4 0 0 1 .18.31.14.14 0 0 1 0 .12l-10 5.75Z" style="fill:#455a64"/><path d="m87.06 167.66 10.02-5.8v12.54l-10.02 5.81z" style="opacity:.2"/><path d="m146.31 201.89-59.25-34.23v12.55l59.25 34.22z" style="opacity:.2"/><path d="m145.93 201.89 10.47-6.07v12.55l-10.47 6.06z" style="opacity:.2"/><path d="m146.1 199.7 10-5.76a.14.14 0 0 1 .12 0 .4.4 0 0 1 .18.31.14.14 0 0 1 0 .12l-10 5.75ZM117.23 183 87.4 165.77h-.12a.38.38 0 0 0-.19.31.12.12 0 0 0 .06.12L117 183.44Z" style="fill:#455a64"/><path d="M117 181.23v17.23a.14.14 0 0 0 .08.11.45.45 0 0 0 .36 0 .13.13 0 0 0 .07-.11v-17.23Z" style="fill:#37474f"/><path d="m146.14 199.7-28.73-16.61a.16.16 0 0 0-.13 0 .4.4 0 0 0-.18.31.14.14 0 0 0 .05.12l28.73 16.6Z" style="fill:#455a64"/><path d="M86.93 163.9v17.23a.13.13 0 0 0 .07.11.4.4 0 0 0 .37 0 .13.13 0 0 0 .07-.11V163.9Zm58.93 34.04v17.24a.14.14 0 0 0 .08.1.38.38 0 0 0 .36 0 .14.14 0 0 0 .08-.1v-17.24Z" style="fill:#37474f"/><path d="m88 163.85 58.11 33.57 9.68-5.48a.2.2 0 0 1 .21 0 1 1 0 0 1 .37.79.43.43 0 0 1-.13.36l-9.83 5.55a.54.54 0 0 1-.3.08.55.55 0 0 1-.31-.08l-59.35-34.25a.63.63 0 0 1-.31-.54" style="fill:#455a64"/><path d="m323.63 80.02-108.04-62.5-144.31 83.4 108.04 62.38z" style="fill:#ffc100"/><g style="opacity:.8"><path d="m323.63 80.02-108.04-62.5-144.31 83.4 108.04 62.38z" style="fill:#fff"/></g><path d="M215.54 23.56v4.18l94.15 54.36 3.63-2.09z" style="fill:#ffc100"/><path d="M215.54 23.56v4.18l94.15 54.36 3.63-2.09z" style="opacity:.15"/><path d="m215.54 23.56-134 77.36 3.63 2.09 130.37-75.27z" style="fill:#ffc100"/><path d="m309.69 82.1-94.15-54.36-130.37 75.27 94.15 54.36z" style="fill:#ffc100"/><path d="m309.69 82.1-94.15-54.36-130.37 75.27 94.15 54.36z" style="opacity:.30000000000000004"/><path d="m112.16 88.36-24.94 14.39 17.54 10.13 24.95-14.39z" style="opacity:.1"/><path d="m112.33 85.11-9.06 5.23 12.68 7.32 9.05-5.23z" style="fill:#fafafa"/><path d="M103.27 90.34v5.22l12.68 7.32v-5.22z" style="fill:#e0e0e0"/><path d="M125 92.43v5.23l-9.05 5.22v-5.22z" style="fill:#f0f0f0"/><path d="M109.35 88.62c-1.64.95-1.64 2.49 0 3.44a6.6 6.6 0 0 0 6 0c1.64-.94 1.64-2.48 0-3.43a6.57 6.57 0 0 0-6-.01" style="fill:#e0e0e0"/><path d="M110.93 89.6c-.77.41-.77 1.07 0 1.48a3.36 3.36 0 0 0 2.79 0c.77-.41.77-1.07 0-1.48a3.32 3.32 0 0 0-2.79 0" style="fill:#fafafa"/><path d="M120.56 102.75a.45.45 0 0 1-.45-.44v-2.88l-1.58-.92a.44.44 0 0 1-.17-.61.45.45 0 0 1 .61-.16l1.81 1.05a.44.44 0 0 1 .23.38v3.14a.45.45 0 0 1-.45.44m2.63-1.51a.45.45 0 0 1-.45-.45v-2.88l-1.58-.91a.45.45 0 1 1 .44-.78l1.81 1a.45.45 0 0 1 .23.39v3.13a.45.45 0 0 1-.45.5" style="fill:#ffc100"/><path d="m99.65 92.43-9.05 5.23 12.67 7.31 9.06-5.22z" style="fill:#fafafa"/><path d="M90.6 97.66v5.22l12.67 7.32v-5.23z" style="fill:#e0e0e0"/><path d="M112.33 99.75v5.22l-9.06 5.23v-5.23z" style="fill:#f0f0f0"/><path d="M96.68 95.94c-1.65 1-1.65 2.48 0 3.43a6.59 6.59 0 0 0 6 0c1.64-1 1.64-2.48 0-3.43a6.57 6.57 0 0 0-6 0" style="fill:#e0e0e0"/><path d="M98.26 96.92c-.77.4-.77 1.07 0 1.47a3.3 3.3 0 0 0 2.78 0c.77-.4.77-1.07 0-1.47a3.3 3.3 0 0 0-2.78 0" style="fill:#fafafa"/><path d="M107.88 110.07a.44.44 0 0 1-.44-.44v-2.88l-1.59-.92a.45.45 0 0 1 .45-.77l1.81 1a.44.44 0 0 1 .22.39v3.14a.45.45 0 0 1-.45.48m2.63-1.51a.45.45 0 0 1-.44-.45v-2.88l-1.59-.92a.44.44 0 0 1-.16-.61.45.45 0 0 1 .61-.16l1.81 1a.43.43 0 0 1 .22.38v3.14a.45.45 0 0 1-.45.5" style="fill:#ffc100"/><path d="m215.54 23.56-4.74 6.91 94.16 54.37 8.36-4.83z" style="opacity:.1"/><path d="M179.32 163.3 71.28 100.92v6.39l108.04 62.38z" style="fill:#ffc100"/><g style="opacity:.4"><path d="M179.32 163.3 71.28 100.92v6.39l108.04 62.38z" style="fill:#fff"/></g><path d="M323.63 80.02v6.39l-144.31 83.28v-6.39z" style="fill:#ffc100"/><g style="opacity:.6000000000000001"><path d="M323.63 80.02v6.39l-144.31 83.28v-6.39z" style="fill:#fff"/></g><path d="M119.47 358.76 79.53 335.7l-42.37 24.53 39.93 23.06z" style="fill:#ffc100"/><g style="opacity:.8"><path d="M119.47 358.76 79.53 335.7l-42.37 24.53 39.93 23.06z" style="fill:#fff"/></g><path d="m77.09 429.94 42.38-24.52v-46.66l-42.38 24.53z" style="fill:#ffc100"/><g style="opacity:.6000000000000001"><path d="m77.09 429.94 42.38-24.52v-46.66l-42.38 24.53z" style="fill:#fff"/></g><path d="M81.69 419.46a1.1 1.1 0 0 1-.55-.15 1.67 1.67 0 0 1-.68-1.52V413h.22l3.51-2v5a4.07 4.07 0 0 1-1.72 3.27 1.6 1.6 0 0 1-.78.19m-.69-5.81v4.14a1.15 1.15 0 0 0 .4 1 .76.76 0 0 0 .76-.08 3.53 3.53 0 0 0 1.47-2.71v-.37h-1.3l-.25-1.75Zm1.8 1.38h.81v-3.09l-2.09 1.23 1 .19Z" style="fill:#455a64"/><path d="M82.33 423a.29.29 0 0 1-.29-.29V419a.29.29 0 0 1 .57 0v3.76a.29.29 0 0 1-.28.24" style="fill:#455a64"/><path d="M80.69 424a.27.27 0 0 1-.24-.14.29.29 0 0 1 .1-.39l3.27-1.88a.28.28 0 0 1 .28.48l-3.27 1.89a.23.23 0 0 1-.14.04m11.65-6.51a.55.55 0 0 1-.31-.08.72.72 0 0 1-.34-.67V416a.29.29 0 0 1 .28-.29.28.28 0 0 1 .28.29v.77a.14.14 0 0 0 .24.14 1.66 1.66 0 0 0 .52-1.27v-5a.29.29 0 1 1 .57 0v5a2.15 2.15 0 0 1-.8 1.75.85.85 0 0 1-.44.1" style="fill:#455a64"/><path d="M89.37 413.12v-.49A8 8 0 0 1 93 406.4a2.38 2.38 0 0 1 3.88 2.24v.16Zm5.29-6.67a2.87 2.87 0 0 0-1.41.44 7.45 7.45 0 0 0-3.25 5.24l6.33-3.65a2.12 2.12 0 0 0-.87-1.84 1.5 1.5 0 0 0-.8-.19m7.78 5.28a.28.28 0 0 1-.28-.28v-9.58a.29.29 0 0 1 .28-.28.28.28 0 0 1 .28.28v9.58a.27.27 0 0 1-.28.28" style="fill:#455a64"/><path d="M101.62 404.06a.2.2 0 0 1-.11 0 .28.28 0 0 1-.15-.37l1-2.31 1.12 1.29a.28.28 0 0 1-.43.37l-.53-.61-.64 1.49a.3.3 0 0 1-.26.14m3.38 6.19a.29.29 0 0 1-.28-.28v-9.58a.29.29 0 0 1 .57 0V410a.29.29 0 0 1-.29.25" style="fill:#455a64"/><path d="M104.22 402.57a.2.2 0 0 1-.11 0 .29.29 0 0 1-.15-.37l1-2.31 1.12 1.29a.28.28 0 1 1-.42.36l-.53-.61-.65 1.49a.28.28 0 0 1-.26.15" style="fill:#455a64"/><path d="m77.09 429.94-39.93-23.05v-46.66l39.93 23.06z" style="fill:#ffc100"/><g style="opacity:.30000000000000004"><path d="m77.09 429.94-39.93-23.05v-46.66l39.93 23.06z" style="fill:#fff"/></g><path d="m53.81 369.84 42.41-24.51 6.65 3.85-42.42 24.5z" style="fill:#455a64"/><path d="M53.81 369.84v7.68l.92-.54 1.24 1.8.77-.66 1.36 1.89.87-.7 1.48 2.06v-7.69z" style="fill:#37474f"/><path d="m43.18 359.51 37.56 21.71v10.37l38.73-22.36v-10.47L81.94 337.1z" style="opacity:.15"/><path d="m128.26 326.83-39.93-23.06-42.37 24.53 39.93 23.06z" style="fill:#ffc100"/><g style="opacity:.8"><path d="m128.26 326.83-39.93-23.06-42.37 24.53 39.93 23.06z" style="fill:#fff"/></g><path d="m85.89 382.1 42.37-24.53v-30.74l-42.37 24.53z" style="fill:#ffc100"/><g style="opacity:.6000000000000001"><path d="m85.89 382.1 42.37-24.53v-30.74l-42.37 24.53z" style="fill:#fff"/></g><path d="M90.49 371.61a1.15 1.15 0 0 1-.55-.14 1.7 1.7 0 0 1-.69-1.52v-4.81h.23l3.52-2.03v5a4 4 0 0 1-1.73 3.27 1.55 1.55 0 0 1-.78.23m-.67-5.81v4.2a1.17 1.17 0 0 0 .4 1 .79.79 0 0 0 .76-.09 3.51 3.51 0 0 0 1.45-2.78v-.36h-1.3l-.26-1.77Zm1.8 1.38h.81v-3.09l-2.09 1.23 1 .19Z" style="fill:#455a64"/><path d="M91.12 375.18a.29.29 0 0 1-.28-.28v-3.76a.28.28 0 0 1 .28-.28.27.27 0 0 1 .28.28v3.76a.28.28 0 0 1-.28.28" style="fill:#455a64"/><path d="M89.49 376.12a.28.28 0 0 1-.14-.52l3.27-1.89a.28.28 0 0 1 .38.1.29.29 0 0 1-.1.39l-3.27 1.88a.23.23 0 0 1-.14.04m11.64-6.47a.6.6 0 0 1-.3-.08.74.74 0 0 1-.34-.68v-.77a.28.28 0 0 1 .28-.28.27.27 0 0 1 .28.28v.77c0 .12 0 .18.06.19s.08 0 .18-.05a1.64 1.64 0 0 0 .52-1.27v-5a.29.29 0 0 1 .57 0v5a2.14 2.14 0 0 1-.8 1.75.9.9 0 0 1-.45.14" style="fill:#455a64"/><path d="M98.17 365.28v-.49a8 8 0 0 1 3.6-6.24 2.38 2.38 0 0 1 3.88 2.24v.21Zm5.28-6.68a2.87 2.87 0 0 0-1.4.44 7.42 7.42 0 0 0-3.29 5.24l6.32-3.65a2.06 2.06 0 0 0-.86-1.83 1.55 1.55 0 0 0-.77-.2m7.79 5.28a.27.27 0 0 1-.28-.28V354a.28.28 0 0 1 .56 0v9.57a.27.27 0 0 1-.28.31" style="fill:#455a64"/><path d="M110.42 356.21h-.11a.28.28 0 0 1-.15-.37l1-2.32 1.12 1.29a.28.28 0 0 1-.43.37l-.53-.61-.64 1.49a.28.28 0 0 1-.26.15m3.42 6.19a.29.29 0 0 1-.28-.28v-9.58a.29.29 0 0 1 .28-.28.28.28 0 0 1 .28.28v9.58a.28.28 0 0 1-.28.28" style="fill:#455a64"/><path d="M113 354.73a.2.2 0 0 1-.11 0 .28.28 0 0 1-.15-.37l1-2.31 1.12 1.29a.28.28 0 0 1-.43.37l-.53-.62-.64 1.5a.3.3 0 0 1-.26.14" style="fill:#455a64"/><path d="m85.89 382.1-39.93-23.06V328.3l39.93 23.06z" style="fill:#ffc100"/><g style="opacity:.30000000000000004"><path d="m85.89 382.1-39.93-23.06V328.3l39.93 23.06z" style="fill:#fff"/></g><path d="m62.61 337.91 42.41-24.51 6.65 3.85-42.42 24.5z" style="fill:#455a64"/><path d="M62.61 337.91v7.68l.92-.54 1.24 1.8.77-.66 1.36 1.89.87-.7 1.48 2.05v-7.68z" style="fill:#37474f"/><path d="m192.02 387.57-39.93-23.05-42.38 24.53 39.93 23.05z" style="fill:#ffc100"/><g style="opacity:.8"><path d="m192.02 387.57-39.93-23.05-42.38 24.53 39.93 23.05z" style="fill:#fff"/></g><path d="m149.64 442.84 42.38-24.53v-30.74l-42.38 24.53z" style="fill:#ffc100"/><g style="opacity:.6000000000000001"><path d="m149.64 442.84 42.38-24.53v-30.74l-42.38 24.53z" style="fill:#fff"/></g><path d="M154.24 432.36a1.1 1.1 0 0 1-.55-.15 1.68 1.68 0 0 1-.68-1.52v-4.8h.23l3.51-2.06v5a4.05 4.05 0 0 1-1.73 3.27 1.6 1.6 0 0 1-.78.26m-.67-5.81v4.14a1.14 1.14 0 0 0 .41 1 .76.76 0 0 0 .76-.08 3.57 3.57 0 0 0 1.44-2.78v-.37h-1.3l-.25-1.75Zm1.8 1.38h.81v-3.09l-2.09 1.23 1 .18Z" style="fill:#455a64"/><path d="M154.88 435.92a.27.27 0 0 1-.28-.28v-3.76a.28.28 0 0 1 .28-.28.29.29 0 0 1 .28.28v3.76a.28.28 0 0 1-.28.28" style="fill:#455a64"/><path d="M153.24 436.87a.28.28 0 0 1-.24-.14.29.29 0 0 1 .1-.39l3.27-1.89a.28.28 0 1 1 .28.49l-3.27 1.89a.3.3 0 0 1-.14.04m11.65-6.48a.55.55 0 0 1-.31-.08.75.75 0 0 1-.34-.67v-.78a.29.29 0 0 1 .57 0v.78c0 .11 0 .17.05.18s.09 0 .18 0a1.67 1.67 0 0 0 .53-1.28v-5a.28.28 0 0 1 .28-.28.29.29 0 0 1 .28.28v5a2.13 2.13 0 0 1-.8 1.76.85.85 0 0 1-.44.09" style="fill:#455a64"/><path d="M161.92 426v-.49a8 8 0 0 1 3.6-6.23 2.38 2.38 0 0 1 3.88 2.24v.16Zm5.29-6.67a2.9 2.9 0 0 0-1.41.43 7.47 7.47 0 0 0-3.29 5.25l6.33-3.65a2.09 2.09 0 0 0-.87-1.84 1.5 1.5 0 0 0-.76-.17Zm7.79 5.3a.29.29 0 0 1-.28-.28v-9.58a.29.29 0 0 1 .57 0v9.58a.29.29 0 0 1-.29.28" style="fill:#455a64"/><path d="M174.17 417a.23.23 0 0 1-.11 0 .29.29 0 0 1-.15-.37l1-2.31 1.12 1.29a.28.28 0 0 1-.42.37l-.53-.62-.65 1.5a.3.3 0 0 1-.26.14m3.43 6.15a.28.28 0 0 1-.28-.29v-9.57a.27.27 0 0 1 .28-.28.28.28 0 0 1 .28.28v9.57a.29.29 0 0 1-.28.29" style="fill:#455a64"/><path d="M176.77 415.47h-.11a.27.27 0 0 1-.14-.37l1-2.32 1.11 1.29a.28.28 0 1 1-.42.37l-.53-.61-.68 1.47a.27.27 0 0 1-.23.17" style="fill:#455a64"/><path d="m149.64 442.84-39.93-23.05v-30.74l39.93 23.05z" style="fill:#ffc100"/><g style="opacity:.30000000000000004"><path d="m149.64 442.84-39.93-23.05v-30.74l39.93 23.05z" style="fill:#fff"/></g><path d="m126.36 398.65 42.41-24.51 6.65 3.85-42.42 24.5z" style="fill:#455a64"/><path d="M126.36 398.65v7.69l.92-.54 1.24 1.79.78-.66 1.35 1.89.88-.69 1.47 2.05v-7.69zm307.81-9.74c.25 1.53.74 3.32 1.12 6.46s-.3 3.26 1.59 11.15c1.14 4.74.87 6.6-2.09 10.52-3.17 4.18-6.37 3.25-8.37-1.51-1.72-4.07-1.57-5.94-1.49-10.12s.06-5.39-.06-8.71c-.11-2.92.17-4.91 0-7.15Z" style="fill:#37474f"/><path d="M434.88 400.37c-.49-4.06-.54-8.25-.69-11-.35-6.14 1.14-18.23.46-27.46l-15.5-1.91c.45 3.6 4.41 19.94 5.76 29.78 0 0 .34 13.32 1.08 19.2a1.12 1.12 0 0 0 1.56.9 10.27 10.27 0 0 1 7-.31 1.12 1.12 0 0 0 1.52-1c.05-2.17-.82-5.16-1.19-8.2m-45.15-41.31c0 12.76-.07 24.05-.53 27.36a26.3 26.3 0 0 1-1.49 6.75 27 27 0 0 1-3.54 6.89s-3.64 3.88-2.83 4.29 8.45 1.2 11.86.17 3.79-3.93 4.95-9.23 2.17-13 2.17-13a3.4 3.4 0 0 1-.35-.9c-.46-1.53.93-5.5 1.28-9.34Z" style="fill:#ffbda7"/><path d="M403.72 390.17c-.23 1.24-1.29 2.64-1.77 4.56a35 35 0 0 0-1 6.69c-.16 2.76-.18 3.16-.18 3.16l-.85-.05s.22-4 .31-5.74 0-3-.83-3.27c.01 0 .18-5.58 4.32-5.35" style="fill:#263238"/><path d="M400.18 381.55c.55 1.46 2.41 3.52 3.21 4.91a5.3 5.3 0 0 1 .65 2.4 2.5 2.5 0 0 1-.76 1.88 27.6 27.6 0 0 0-2.65 2.94 23.7 23.7 0 0 0-3.55 7c-.54 2.31-.86 4.35-2.84 5.5-1.55.89-7.9 2.14-11.12 2.34-4.39.28-5.52-1.83-3.88-3.51s4.43-4.57 4.93-4.93a7.93 7.93 0 0 1 4.08.57c2.46 1.05 3.24 2.48 5.82 1.19 2.34-1.16 3.27-5.48 3.07-11.7-.22-7.07 3.04-8.59 3.04-8.59m24.13-109.47a10.8 10.8 0 0 0 1.17 3.9c3.5 4.91 7.06 10.84 7.65 19.95a403 403 0 0 1 .2 43.17c.15 1.94 1.62 6.65 1.82 17.73.17 8.82-.42 22.54-.42 22.54s-6.34 3.06-11.83.95c-2.16-8.43-5.75-28.69-7.87-38.33-2.25-10.16-4.53-22.28-4.53-22.28l-3.81 17.74a51.2 51.2 0 0 1-.14 11.46c-.7 5.89-5.5 26.65-5.5 26.65s-7 2.14-11.75-1.17c0 0-.4-29.39-.41-35.88s1.26-45 5.34-61.95a37 37 0 0 0 .26-3.94c4.63 3.86 23.61 3.59 29.82-.54" style="fill:#37474f"/><path d="M434.86 376.32c-2.41 2.19-9.78 2.73-12.66 1.18l.87 4.59s1.9 1.3 6.09.94 5.53-2 5.53-2Zm-33.1-3.67c-2.49.83-9.92.39-12.63-1.29l.11 3.93s1.53 1.48 5.71 1.92 6-.72 6-.72Z" style="fill:#455a64"/><path d="M410.5 319.71 407.77 298a13.75 13.75 0 0 1-11-5.29s-.18 5.44 8.75 7.93l3.27 20-2.12 16.8Zm-16.21-43.46s4.49 3.42 15.11 3 15.76-3.79 15.7-4a15 15 0 0 1-.71-2.77c0-.16-.06-.3-.07-.4-6.21 4.13-25.19 4.4-29.82.54 0 0-.05 2.54-.2 3.63Z" style="fill:#263238"/><path d="M417.14 276c-1.22 2.54-3 7.86-3.17 11.51a12.6 12.6 0 0 0 5.47 1.22 43 43 0 0 0-.44-11.87Z" style="fill:#263238"/><path d="M420.25 274.62c1.88 2.1 5.11 6.7 6.26 10.17a12.54 12.54 0 0 1-4.91 2.7 43 43 0 0 1-2.89-11.49Z" style="fill:#263238"/><path d="M429.32 242.78c-4.14 1.1-10.44 1.14-13.49-2.4-2.89-3.34-3.05-7.09-3.17-11.29a5.3 5.3 0 0 0-.24-1.59 24 24 0 0 1-.73-4.28c-.18-1.44-.29-2.89-.34-4.34a61 61 0 0 1 .34-8.63 17.5 17.5 0 0 1 .94-4.55 7.35 7.35 0 0 1 2.77-3.7 6.63 6.63 0 0 1 3.39-1 9 9 0 0 1 7.17 3.73c1.64 2.37 1.73 5.44 1.8 8.32a268 268 0 0 0 2.29 28.41.89.89 0 0 1-.73 1.27Z" style="fill:#37474f"/><path d="M414.92 203.18c.7-.7 3.79-.29 5.6 1.57s2.39 4.67 1.31 5.54-8.11-5.03-6.91-7.11" style="fill:#ffc100"/><path d="M346.52 251a1.33 1.33 0 0 0-.1 1.54c.5.51 1.2 0 1.2 0s-1.31.95-.71 1.62 1.43.1 1.43.1-.9.64-.56 1.06 1.48.26 2.64-.53a7.4 7.4 0 0 0 2.19-.83 5 5 0 0 0 1.7.22 6.4 6.4 0 0 0 1 1c.57.45 1.4 1.94 3.06 2.16a7 7 0 0 0 2.67-.08l-5.82-10.08-6.39.55Z" style="fill:#f0997a"/><path d="M352.62 252.37a3.46 3.46 0 0 1-1.68.45h.06a3.8 3.8 0 0 1-1.57.79h.05a2 2 0 0 1-1.14.73 2.4 2.4 0 0 0 1-.81 4.3 4.3 0 0 0 1.49-.76 4.8 4.8 0 0 0 1.79-.4" style="fill:#b16668"/><path d="M346 248.12c1-.62 2.94-2.17 3.6-2.45a22.3 22.3 0 0 1 3.55-.86 34 34 0 0 1 4.57 0c1.41.13 1.94.82 3.67 2.78a22.2 22.2 0 0 0 5.61 4.61l-4.3 5.94c-1.78-1.06-2.66-.57-4.8-1.53a7.4 7.4 0 0 1-3.36-3.45 2 2 0 0 0-1.61-1l-.81-2.93a6.2 6.2 0 0 0 2-.44.6.6 0 0 0 .37-.46v-.07a14 14 0 0 1-2.14-.13l-2.16.15c-.11.25-1.85.79-1.85.79a3.6 3.6 0 0 1-1.32.64c-.8.2-1.72.34-2.11-.15s.09-.82 1.09-1.44" style="fill:#ffbda7"/><path d="M367 252.2c4.91 2.66 15.74 7.34 15.74 7.34s7.46 9 4.88 12.08c-2.14 2.55-4.3 2.7-10.78-2-6-4.39-14.14-11.44-14.14-11.44Z" style="fill:#ffbda7"/><path d="M354.48 248.23a6.8 6.8 0 0 1 .91-2.3 3.7 3.7 0 0 0-1.2 2.32Z" style="fill:#f0997a"/><path d="m345.74 268.01.74-.43.45-.08-.74.43z" style="fill:#ffc100"/><path d="m345.74 268.01.74-.43.45-.08-.74.43z" style="opacity:.4"/><path d="m345.74 265.68.74-.43.78-.27-.74.43z" style="fill:#ffc100"/><path d="m345.74 265.68.74-.43.78-.27-.74.43z" style="opacity:.4"/><path d="M347.06 258.8a1.53 1.53 0 0 1 .55.67 1.67 1.67 0 0 1-.55-.67m.65-1.35a2.62 2.62 0 0 0-2.48-.36l-.7.41h-.06l-.06.05h-.05l-.07.06v.05a1.3 1.3 0 0 0-.23.39 1 1 0 0 0 0 .14 1 1 0 0 0 0 .17 3 3 0 0 0 0 .31 5 5 0 0 0 1.24 2.87l.06.06a5.5 5.5 0 0 0 .57.61v1.47l.78.75v.88l-.78.26v.58l.44.77v.91l-.45.08v1l1.19 1.73.24.14.12-.07.09.05v.24l.41.23.74-.42v-7.06h.59l.2-.08h.09l.7-.4a1.34 1.34 0 0 0 .62-1.25 5.82 5.82 0 0 0-2.35-4 5.4 5.4 0 0 0-.85-.57" style="fill:#ffc100"/><path d="M347 258.73a1.41 1.41 0 0 1 .7 1c0 .34-.31.43-.7.21a1.38 1.38 0 0 1-.71-1c-.03-.34.28-.43.71-.21m0-.85a2.64 2.64 0 0 0-2.44-.38h-.06l-.06.05h-.05l-.07.06v.05a1.3 1.3 0 0 0-.23.39 1 1 0 0 0 0 .14 1 1 0 0 0 0 .17 3 3 0 0 0 0 .31 5 5 0 0 0 1.24 2.87l.06.06a5.5 5.5 0 0 0 .57.61v1.47l.78.75v.88l-.78.26v.58l.44.77v.91l-.45.08v1l1.19 1.73.24.14.12-.07.09.05v.24l.41.23v-7.63a2.6 2.6 0 0 0 .74.15h.59l.2-.08h.09a1.34 1.34 0 0 0 .58-1.22 5.82 5.82 0 0 0-2.35-4 7 7 0 0 0-.85-.57" style="fill:#ffc100"/><g style="opacity:.15"><path d="M347 258.73a1.41 1.41 0 0 1 .7 1c0 .34-.31.43-.7.21a1.38 1.38 0 0 1-.71-1c-.03-.34.28-.43.71-.21m0-.85a2.64 2.64 0 0 0-2.44-.38h-.06l-.06.05h-.05l-.07.06v.05a1.3 1.3 0 0 0-.23.39 1 1 0 0 0 0 .14 1 1 0 0 0 0 .17 3 3 0 0 0 0 .31 5 5 0 0 0 1.24 2.87l.06.06a5.5 5.5 0 0 0 .57.61v1.47l.78.75v.88l-.78.26v.58l.44.77v.91l-.45.08v1l1.19 1.73.24.14.12-.07.09.05v.24l.41.23v-7.63a2.6 2.6 0 0 0 .74.15h.59l.2-.08h.09a1.34 1.34 0 0 0 .58-1.22 5.82 5.82 0 0 0-2.35-4 7 7 0 0 0-.85-.57" style="fill:#fff"/></g><path d="M347 258.73c-.39-.22-.71-.13-.71.21a1.39 1.39 0 0 0 .7 1c.4.22.71.13.71-.21a.7.7 0 0 0-.06-.28 1.67 1.67 0 0 1-.55-.67Z" style="opacity:.4"/><g style="opacity:.4"><path d="M347.71 257.45a2.62 2.62 0 0 0-2.48-.36l-.7.41a2.64 2.64 0 0 1 2.44.38 7 7 0 0 1 .74.51 5.82 5.82 0 0 1 2.35 4 1.34 1.34 0 0 1-.58 1.22l.7-.4a1.34 1.34 0 0 0 .62-1.25 5.82 5.82 0 0 0-2.35-4 5.4 5.4 0 0 0-.74-.51" style="fill:#fff"/></g><path d="M347 257.88a2.64 2.64 0 0 0-2.44-.38l.7-.41a2.62 2.62 0 0 1 2.48.36l.11.07c-.26.14-.51.29-.74.43Z" style="fill:#ffc100"/><path d="m347.38 263.35-.21-.12v7.67l.12-.07.09.05z" style="opacity:.15"/><path d="m347.29 263.3-.12-.07v7.67l.12-.07zm1.1 0a2.93 2.93 0 0 1-1.45-.46 5.17 5.17 0 0 1-2.61-3.77 1.17 1.17 0 0 1 .54-1.09 2.22 2.22 0 0 1 2.13.3 5.18 5.18 0 0 1 2.6 3.77 1.18 1.18 0 0 1-.54 1.09 1.33 1.33 0 0 1-.67.16m-1.39-.56a2.13 2.13 0 0 0 2 .3 1.07 1.07 0 0 0 .48-1 5 5 0 0 0-2.54-3.67 2.12 2.12 0 0 0-2-.3 1.07 1.07 0 0 0-.48 1 5 5 0 0 0 2.55 3.67Z" style="opacity:.15"/><g style="opacity:.5"><path d="M348.53 263.77a2.6 2.6 0 0 1-.74-.15v7.63l.74-.42Z" style="fill:#fff"/></g><path d="M350.49 248.78a2.94 2.94 0 0 0-2.95.28 9 9 0 0 0-4 7 2.9 2.9 0 0 0 1.23 2.69 2.1 2.1 0 0 0 1.1.29 3.4 3.4 0 0 0 1.22-.26.8.8 0 0 0-.3-.15 2.3 2.3 0 0 1-1.9-.09 2.7 2.7 0 0 1-1.11-2.48 8.68 8.68 0 0 1 3.93-6.8 2.31 2.31 0 0 1 3.8 2.2 8.83 8.83 0 0 1-3.23 6.33l.2.15a9.1 9.1 0 0 0 3.28-6.48 2.92 2.92 0 0 0-1.27-2.68" style="fill:#455a64"/><path d="M347 249.3a13.6 13.6 0 0 1 2.71 0c1 0 1.46 0 2.46-.06l.81 2.93c-.59-.06-2.67.2-3.65.12a3.69 3.69 0 0 1-2.83-1.29c-.77-.92-.19-1.54.5-1.7" style="fill:#ffbda7"/><path d="M388.18 271.81c1.68-1.68 4.71-5.16 6.53-7.38s7.83-9.1 7.83-9.1l1.66-17.41c-7.18.65-8.33 2.36-11.19 5.87-2.12 2.61-8.68 13.08-10.2 15.63l-14.76-7.27a10.62 10.62 0 0 1-2.79 8.55s9.23 7.91 14.24 11.12c3.5 2.24 5.65 3.03 8.68-.01" style="fill:#ffc100"/><path d="M388.18 271.81c1.68-1.68 4.71-5.16 6.53-7.38s7.83-9.1 7.83-9.1l1.66-17.41c-7.18.65-8.33 2.36-11.19 5.87-2.12 2.61-8.68 13.08-10.2 15.63l-14.76-7.27a10.62 10.62 0 0 1-2.79 8.55s9.23 7.91 14.24 11.12c3.5 2.24 5.65 3.03 8.68-.01" style="opacity:.4"/><path d="m414.62 234.83 9.58 3c1.64.57 7.85 4.36 5.68 13.71-.71 3.09-1.69 7.43-2.57 11.77-.68 3.31 1.8 9.69 3.8 19.85 0 0-8.21 6.54-24.53 4.69-12.45-1.4-13.8-6.06-13.8-6.06.35-11.6 1.37-16.07 1.35-20.48a10.6 10.6 0 0 1-1.9-6.16c-.08-4.13 1-6.35 4.71-11a82 82 0 0 1 6.78-7.55Z" style="fill:#fafafa"/><path d="M396.92 249.24c-2.88 6.56-.94 44-1.19 41.17 0 0-5.37-2.07-5.87-3.86 0-6.74 1.24-20.28 1.32-24.91.09-5.32 0-9.17 1.75-12.44s8.22-11.28 10.79-12.67c-2.65 2.31-5.72 8.78-6.8 12.71" style="fill:#ffc100"/><path d="M396.92 249.24c-2.88 6.56-.94 44-1.19 41.17 0 0-5.37-2.07-5.87-3.86 0-6.74 1.24-20.28 1.32-24.91.09-5.32 0-9.17 1.75-12.44s8.22-11.28 10.79-12.67c-2.65 2.31-5.72 8.78-6.8 12.71" style="opacity:.2"/><path d="M407.4 236.91c-1.81 1.24-9.92 6.82-11.53 17.67a29.9 29.9 0 0 1 3.51-13.43c2.08-3.38 4.85-6.54 7.95-7.46Z" style="fill:#263238"/><path d="M418.29 234.94a10 10 0 0 1 0 2.18c-.09 2-3.3 17.41-3.36 24.78a241 241 0 0 0 1.78 29.66s11.89 1.08 16.26-4.83a83.3 83.3 0 0 1-4-15.49c-.87-5.32 2.67-18.32 1.75-26-.38-3.22-.16-6.11-2.57-6.86-2-.63-5.17-1.47-5.17-1.47Z" style="fill:#ffc100"/><path d="M418.29 234.94a10 10 0 0 1 0 2.18c-.09 2-3.3 17.41-3.36 24.78a241 241 0 0 0 1.78 29.66s11.89 1.08 16.26-4.83a83.3 83.3 0 0 1-4-15.49c-.87-5.32 2.67-18.32 1.75-26-.38-3.22-.16-6.11-2.57-6.86-2-.63-5.17-1.47-5.17-1.47Z" style="opacity:.2"/><path d="M399.54 207c-4.94.21-7.75 7.66-4.35 12.87 6 9.22 20.51 3.77 20.51 3.77l2.68 7.84s2.73-3 4.58-5.52c3.34-4.5 3.7-15.21-1.74-16.27.78-5.48-14.39-12.24-21.68-2.69" style="fill:#455a64"/><path d="M399.47 210.85c-.8 1.63-2.72 4.08-2.42 13.1.23 7.05 2.68 8.59 5 9.48 1.13.44 2.87.44 5.29.18l.06 3.3s-4.39 4-3 12.18c13.65-5.69 13.81-12.63 13.81-12.63l.37-11c.44.72 2.61 1.69 4.31-.48 2-2.55 1.55-5.6-.23-6.72s-4-.06-4.76 2c-1.92.8-4.46-1.19-4.34-8.59-2.33-1.23-6.89.5-8.35.34-2.21-.24-3.48-2.36-5.74-1.16" style="fill:#ffbda7"/><path d="M421.82 224a1 1 0 0 1-2 .28 1 1 0 0 1 2-.28" style="fill:#ffc100"/><path d="M407.34 233.61c5.93-1.28 9.25-3.69 9.86-6.09 0 0-.38 3.14-2 4.52-2.34 1.94-7.79 3.2-7.79 3.2Z" style="fill:#f0997a"/><path d="m404.2 227.41 4.14-1.53a2.1 2.1 0 0 1-1.22 2.8 2.32 2.32 0 0 1-2.92-1.27" style="fill:#b16668"/><path d="M406.18 228.81a2.2 2.2 0 0 0 .94-.13 2.08 2.08 0 0 0 1.37-1.77 2.54 2.54 0 0 0-2.31 1.9" style="fill:#f28f8f"/><path d="M409.72 220.31a1.2 1.2 0 1 1-1.2-1.19 1.19 1.19 0 0 1 1.2 1.19" style="fill:#263238"/><ellipse cx="400.12" cy="219.91" rx="1.2" ry="1.19" style="fill:#263238"/><path d="m405.21 217.67-.64 8.02-3.81-1.51z" style="fill:#f0997a"/><path d="m398.2 217.94 2.8-.94a1.4 1.4 0 0 0-1.8-.92 1.52 1.52 0 0 0-1 1.86m12.62.41-2.7-1.16a1.42 1.42 0 0 1 1.89-.8 1.53 1.53 0 0 1 .81 1.96m7.52 14.48c.91 0 1.15.51 2.35 1.88a18 18 0 0 0 2.27 2.18c-1.11 6.77-6.44 15.21-8 23.15-.07-6.43 1.66-15.27 3.29-25.1Z" style="fill:#263238"/><path d="m421 288.43 1.1.64a1 1 0 0 1 .11-.17 1.7 1.7 0 0 1 .26-.28l.15-.11 9-5.21 2.67-1.53 1.09-.63 15.6-9a.49.49 0 0 1 .47-.07l-1.06-.63a.6.6 0 0 0-.19-.05.65.65 0 0 0-.33.1l-14.87 8.6-1.76 1-2.64 1.51h-.07l-9 5.22-.15.1a1.7 1.7 0 0 0-.38.51" style="fill:#ffc100"/><g style="opacity:.4"><path d="m421 288.43 1.1.64a1 1 0 0 1 .11-.17 1.7 1.7 0 0 1 .26-.28l.15-.11 9-5.21 2.67-1.53 1.09-.63 15.6-9a.49.49 0 0 1 .47-.07l-1.06-.63a.6.6 0 0 0-.19-.05.65.65 0 0 0-.33.1l-14.87 8.6-1.76 1-2.64 1.51h-.07l-9 5.22-.15.1a1.7 1.7 0 0 0-.38.51" style="fill:#fff"/></g><path d="m422.16 315.36-1.14-.66a.54.54 0 0 1-.2-.47v-25.08a1.4 1.4 0 0 1 .22-.72l1.1.64a1.43 1.43 0 0 0-.22.72V315a.43.43 0 0 0 .24.36" style="fill:#ffc100"/><path d="m422.16 315.36-1.14-.66a.54.54 0 0 1-.2-.47v-25.08a1.4 1.4 0 0 1 .22-.72l1.1.64a1.43 1.43 0 0 0-.22.72V315a.43.43 0 0 0 .24.36" style="opacity:.05"/><path d="M451.76 272.57v25a1.59 1.59 0 0 1-.73 1.27l-28.5 16.46a.44.44 0 0 1-.65-.38v-25.13a1.43 1.43 0 0 1 .22-.72 1.6 1.6 0 0 1 .51-.55l9-5.22 2.68-1.53 16.71-9.62a.51.51 0 0 1 .48-.07h.05a.53.53 0 0 1 .23.49" style="fill:#ffc100"/><g style="opacity:.15"><path d="M451.76 272.57v25a1.59 1.59 0 0 1-.73 1.27l-28.5 16.46a.44.44 0 0 1-.65-.38v-25.13a1.43 1.43 0 0 1 .22-.72 1.6 1.6 0 0 1 .51-.55l9-5.22 2.68-1.53 16.71-9.62a.51.51 0 0 1 .48-.07h.05a.53.53 0 0 1 .23.49" style="fill:#fff"/></g><path d="m446.2 289.21-.81-5.25-7.68 2.84a42 42 0 0 1 .74 5.8 3.42 3.42 0 0 1-.79 2.31c-1.43 1.76-1.36 3.09-2.24 5-.69 1.48-1.5 2.07-1.24 2.38a1.87 1.87 0 0 0 2.53 0 9.3 9.3 0 0 0 1.79-1.94 21.4 21.4 0 0 1-1.1 6.39l-2.34 1.35a11 11 0 0 1 1.09.74 3.46 3.46 0 0 0 1.71.52 2.43 2.43 0 0 0 1.51-.55 8 8 0 0 1 .71-.61c.95-.62 2.35-.08 3.29-.72a6.3 6.3 0 0 0 1.12-1.37c.27-.32.61-.58.89-.89a3.7 3.7 0 0 0 .69-1.56 13 13 0 0 0 .32-1.51 28.4 28.4 0 0 0 .25-4.22 60.5 60.5 0 0 0-.44-8.71" style="fill:#ffbda7"/><path d="M428.13 238.36c4.58 1.08 7 2.43 8.42 5.34 2.52 5.09 6 11.38 8.21 21.18 2.1 9.17 1.75 16.75 2.39 25.09 0 0-2.73 5.76-9.81 3.22 0 0-2-12.32-3.48-21.79-.58-3.79-7.15-14.95-7.15-14.95s-4.05-11.3 1.42-18.09" style="fill:#ffc100"/><path d="M428.13 238.36c4.58 1.08 7 2.43 8.42 5.34 2.52 5.09 6 11.38 8.21 21.18 2.1 9.17 1.75 16.75 2.39 25.09 0 0-2.73 5.76-9.81 3.22 0 0-2-12.32-3.48-21.79-.58-3.79-7.15-14.95-7.15-14.95s-4.05-11.3 1.42-18.09" style="opacity:.4"/><path d="M420.27 309.8c-.35.22-.49-.43-.57-1.37v-1.74s-1.33 1.19-1.66-2.83c-.36-4.43 1.63-5.24 1.63-5.24v-2.2c0-1.46.31-1.81.64-2.06l.5-.25v15.38Z" style="fill:#ffc100"/><g style="opacity:.8"><path d="M420.27 309.8c-.35.22-.49-.43-.57-1.37v-1.74s-1.33 1.19-1.66-2.83c-.36-4.43 1.63-5.24 1.63-5.24v-2.2c0-1.46.31-1.81.64-2.06l.5-.25v15.38Z" style="fill:#fff"/></g><path d="m420.75 295.91 1.14-.52c0 .49.25 2.15.73 1.87l.49-.3c0-1.93.15-3.4.6-3.68l1-.6-.06 14.15-1 .6c-.43.25-.52-1.15-.54-2.58l-.25.15c-.84.51-1 1.3-1 2.61l-1.27.9Z" style="fill:#ffc100"/><g style="opacity:.7000000000000001"><path d="m420.75 295.91 1.14-.52c0 .49.25 2.15.73 1.87l.49-.3c0-1.93.15-3.4.6-3.68l1-.6-.06 14.15-1 .6c-.43.25-.52-1.15-.54-2.58l-.25.15c-.84.51-1 1.3-1 2.61l-1.27.9Z" style="fill:#fff"/></g><path d="M254.78 409c1.72-7.35 2.48-17.85 2.93-24.55.6-8.74 4.44-17.93 4.44-17.93s.12-15 .32-23.9c.48-21.46 3.07-32.44 5.28-35.56 1.05-1.47 1.92-3.56 2.87-5.17 1.4-2.37 2.5-4.48 2.5-4.48l29.51.31c2 3.79 4 54.12 1.3 73.43-1 7.4-5.65 40.82-5.77 41.83-.05.43-1.37 2.31-4.34 1.79s-3.74-1.56-3.74-1.87c0-1.08-1-2.63-1.07-3.71-.55-7-1.93-16.56-2.49-23.75a51.6 51.6 0 0 1 1.11-16l-3.85-27.45c-1.75 11.93-5.62 29.94-7.57 35.38-3.38 9.42-13.63 36.53-13.63 36.53-1.07 2.93-7.3 1.39-8.07-3.64Z" style="fill:#b16668"/><path d="m283.78 341.94 2.44-11.83s7.62-4.36 9.56-8.51a18.38 18.38 0 0 1-7.6 10l-1.89 10.74 1.34 27Z" style="fill:#9a4a4d"/><path d="M314.66 428a2.9 2.9 0 0 1-.76 2.89 12.5 12.5 0 0 1-9.31 1.4c-4.49-.92-5.69-1.92-7.4-3.58s-3.25-3.38-5.27-4-4.73-1.55-5.3-2.19-.28-3.25-.28-3.25Z" style="fill:#263238"/><path d="M288.92 408a.81.81 0 0 0-.81.57c-.2.71-.5 2.8-.89 4a30 30 0 0 0-.86 7.61c.15 1.36 4 2.49 6 3.4a18.9 18.9 0 0 1 5.3 3.93 14 14 0 0 0 8.16 3.7c3.51.23 7.54-.61 8.56-2.16 1.27-1.93 1.58-3.85-3.44-6.64-.95-.53-3.85-2.53-5-3.36a23 23 0 0 1-3.41-3 14.5 14.5 0 0 1-1.9-2.5 7 7 0 0 1-.52-1.63 15 15 0 0 1-.35-1.75 1.22 1.22 0 0 0-.4-.89 1.17 1.17 0 0 0-.67-.1 18.4 18.4 0 0 0-3.55.52 2.1 2.1 0 0 0-1.23.66 1.84 1.84 0 0 0-.3.95 8 8 0 0 1-.1 1 .65.65 0 0 1-.16.32c-.19.16-.46 0-.61-.15a14.4 14.4 0 0 1-1.27-1.79c-.22-.32-1.31-.59-1.6-.86a8 8 0 0 1-.85-.64c-.3-.36-.11-.75-.1-1.19" style="fill:#37474f"/><path d="M297.62 427.5a27 27 0 0 0-2.27-2s5.37 2.6 8 1.09a2.21 2.21 0 0 0 1-2.76c0-.43 4.05-1.94 5.61-2 .42.27.76.49 1 .61 5 2.79 4.71 4.71 3.44 6.64-1 1.55-4 2.61-8.5 2.27a14.42 14.42 0 0 1-8.28-3.85" style="fill:#455a64"/><path d="M304 422.54c3.14 1.53 1.71 2 .8 2.09s-5.28-2.9-8.4-5.77-6.05-6.11-7.26-7.21c-.45-.41-.93-.91-1.36-1.38.14-.7.26-1.34.35-1.68a.81.81 0 0 1 .81-.57l.09 1.15a2.34 2.34 0 0 0 .91.55 4.2 4.2 0 0 1 1.54.95 14.4 14.4 0 0 0 1.27 1.79A37.3 37.3 0 0 0 304 422.54" style="fill:#263238"/><path d="M304.59 424.14a.34.34 0 0 1-.2-.09.31.31 0 0 1 0-.45 7.72 7.72 0 0 1 6.09-1.9.32.32 0 0 1 .25.38.31.31 0 0 1-.37.25 7.16 7.16 0 0 0-5.51 1.71.31.31 0 0 1-.26.1m-2.71-1.8a.4.4 0 0 1-.2-.08.33.33 0 0 1 0-.46 7.72 7.72 0 0 1 6-2 .32.32 0 1 1-.1.63 7.1 7.1 0 0 0-5.46 1.83.34.34 0 0 1-.24.08m-2.47-2.01a.32.32 0 0 1-.2-.08.33.33 0 0 1 0-.46 7.72 7.72 0 0 1 6.09-1.89.32.32 0 1 1-.12.63 7.12 7.12 0 0 0-5.51 1.71.29.29 0 0 1-.26.09m-2.18-1.8a.32.32 0 0 1-.2-.08.31.31 0 0 1 0-.45 7.7 7.7 0 0 1 6-2.15.31.31 0 0 1 .27.36.32.32 0 0 1-.36.27 7.1 7.1 0 0 0-5.43 1.94.36.36 0 0 1-.28.11m-2.34-2.11a.33.33 0 0 1-.19-.08.32.32 0 0 1 0-.45 7.85 7.85 0 0 1 6.56-2.14.32.32 0 0 1 .27.36.32.32 0 0 1-.36.28 7.27 7.27 0 0 0-6 1.91.34.34 0 0 1-.28.12" style="fill:#f0f0f0"/><path d="M261.1 429.67c-.61 3.08-1.37 5.07-2.73 6.73a4.6 4.6 0 0 1-5.53 1.13c-2-.83-4.52-2.62-4.75-5.38a17 17 0 0 1 1-7.38Z" style="fill:#263238"/><path d="M255.21 407c-.76.13-1.82 4.07-2.89 8.17-1.16 4.39-2.13 5.63-3.12 9.23-1.13 4.11-1 5.55.09 8.28s6 5.94 9 2.67c2.49-2.66 2.9-5.47 3.29-9.67a88 88 0 0 1 1.41-10c.6-3.11 2-5.92 1.28-6.37-.12.45-1.28 3.87-1.81 3.41-.25-.09-.24-.54-.07-1.34a1.37 1.37 0 0 0-.1-1.05 1.66 1.66 0 0 0-.9-.56c-.83-.29-2-.71-2.82-.91-.5-.11-.21-.08-.72-.18a4.55 4.55 0 0 0-1.9-.2c-.29.1-.35.36-.46.64s-.23.69-.36 1c-.06.11-.25.34-.37.31s-.18-.59-.13-.83.08-.61.13-.9.24-1.03.45-1.7" style="fill:#37474f"/><path d="M249.58 422.94c-.17.59-1.11 4.3-.12 5.18s2.15-2.11 2.15-2.11 2.88-.47 6.66 1.85c-.3.62 0 2.85 1.19 2.55s2.09-4.36 2.1-4.42c-.39 4-.83 6.72-3.25 9.31-3.06 3.27-7.91.07-9-2.67s-1.22-4.17-.09-8.28c.09-.41.23-1.04.36-1.41" style="fill:#455a64"/><path d="M251.89 426.32c-.23 1.51-1.51.8-1.42-1.35.13-3.24 1.35-6.17 1.85-9.85 1.07-4.1 2-8.23 2.89-8.17-.13.72-.45 2.25-.45 2.25-.07.31-.21 1.08-.21 1.08-.7 3.08-2 6.62-2.35 9.85-.28 2.87-.09 4.68-.31 6.19m5.91 1.44a26.6 26.6 0 0 0 1.73-4.58c.68-2.76 2.33-7.58 3.34-10.54.29-.92 1.41-3.31 1.42-3.34.51.33.4 2.07-.29 3.9s-1.13 2.94-1.65 4.72c-1.25 3.49-1.89 7.3-2.66 9.31s-2.38 1.97-1.89.53" style="fill:#263238"/><path d="m258.14 427.88-.11-.05a10.32 10.32 0 0 0-6.58-1.62.32.32 0 0 1-.08-.64 10.8 10.8 0 0 1 7 1.73.32.32 0 0 1 .08.45.33.33 0 0 1-.31.13m1.29-2.88h-.1a13.67 13.67 0 0 0-7.67-2 .34.34 0 0 1-.35-.3.33.33 0 0 1 .3-.35 14 14 0 0 1 8.07 2.07.33.33 0 0 1 .1.45.34.34 0 0 1-.35.13m-7.87-4.53a.32.32 0 0 1-.24-.26.33.33 0 0 1 .26-.38c4.06-.77 8.91 1.75 9.06 1.86a.32.32 0 1 1-.37.53s-4.79-2.48-8.57-1.75Zm1.01-2.63a.3.3 0 0 1-.24-.24.32.32 0 0 1 .25-.39c4.48-.93 8.54 2 8.68 2.13a.32.32 0 0 1 .05.45.33.33 0 0 1-.46 0s-4-2.86-8.14-2a.22.22 0 0 1-.14.05" style="fill:#f0f0f0"/><path d="M253.29 414.58a.32.32 0 0 1-.24-.25.32.32 0 0 1 .24-.38c4.21-.95 8.58 2.1 8.73 2.22a.32.32 0 0 1 .06.45.33.33 0 0 1-.46.06s-4.28-3-8.18-2.1Z" style="fill:#ebebeb"/><path d="M280.06 282.14a10 10 0 0 1-1.19-1.17c-1.81-2.1-2.86-5-5.26-6.35-1.48-.85-2.53-1.33-4-2.16a11.7 11.7 0 0 1-3.73-3.4c-1.3-2.63-1.15-5-.4-7.86s2.27-4.69 4.06-6.81c1.55-1.84 1.14-4.17.95-6.5a20.9 20.9 0 0 1 .19-7.11 7.44 7.44 0 0 1 2.49-3.94 11 11 0 0 1 1.87-1c.62-.35.63-.65.86-1.32.9-2.6 3.09-4 5.6-4.82a27.4 27.4 0 0 1 9.45-.83 48.5 48.5 0 0 0 7.86.82c.75 0 2.51-.14 3.13.27a2.48 2.48 0 0 1 1 2.78c-.28 1.26-1.62 2.31-1.48 4 .78.82 1.78 2.36.54 3.26a2.6 2.6 0 0 1-1.23.43 8.8 8.8 0 0 1 1.39 1.47 3.22 3.22 0 0 1 .65 1.88 2 2 0 0 1-.9 1.71 3.1 3.1 0 0 1-.8.32l-1.83.54c.14.25.25.43.29.49 1.51 2.09 3.75 4.09 4.24 6.73.57 3-2.42 5-.31 8.11a14.4 14.4 0 0 0 2.4 2.32c2.12 1.94 3.09 4 2.83 7.66a8.1 8.1 0 0 1-4.67 6.23c-2.31.88-5.6-.1-7.53 1.45-1 .78-1.76 1.77-2.69 2.6a10.51 10.51 0 0 1-13.78.18Z"/><path d="M332.76 285.84c1.64-.64 2.82-2.19 4.76-3.62s3.42-2.07 4-3 1.74.68 1 2-2.24 2.17-1.7 2.52c.8.52 2.53-.51 3.2-.85 2.06-1.06 4.52-3.05 6.93-3.2a1 1 0 0 1 .72.17.79.79 0 0 1 .08 1 4.4 4.4 0 0 1-.68.81 1.2 1.2 0 0 0-.36 1c.06.32.33.57.38.89a1.16 1.16 0 0 1-.12.6 3.7 3.7 0 0 1-.6 1 7 7 0 0 0-.61.72 6 6 0 0 0-.49 1.58c-.65 2.28-3.56 3.95-5.54 4.89-4.23 2-6.53 1.3-9.15 2.07s-11 4.14-16.83 5.32c-6.13 1.23-6 1.26-10.41-4.14a180 180 0 0 1-10.66-15.12c-3.06-4.76-2.95-13.25-.71-16.29 7.15 1.2 6.9 3.17 12.32 11.6s8.07 12.85 8.07 12.85 14.76-2.16 16.4-2.8" style="fill:#b16668"/><path d="M341.42 285.28a5.49 5.49 0 0 1-4.95 4.16c1.63.49 5.37-.36 4.95-4.16" style="fill:#9a4a4d"/><path d="M262.22 327.65c1.18-17.08 4.85-21 7.54-25.83 2.43-4.41 3.26-6.13 3-8.34s-2.21-10.59-3.3-16.54-.25-11 1.39-11.46 8.06-2 8.06-2a58 58 0 0 1 10.77-.65L296 264a33 33 0 0 1 6.73 6c3.83 4.46 4.71 7.36 4.52 11.43-.18 3.88-3.6 6.21-3.6 6.21a54 54 0 0 0-.46 7.74s1.21 9.55 2.06 19.07c1.15 12.88 2.35 32.47 2.35 32.47s-5.39 5.95-22.48 5.95-24.56-6.45-24.56-6.45.83-6.84 1.66-18.77" style="fill:#ffc100"/><path d="M262.22 327.65c1.18-17.08 4.85-21 7.54-25.83 2.43-4.41 3.26-6.13 3-8.34s-2.21-10.59-3.3-16.54-.25-11 1.39-11.46 8.06-2 8.06-2a58 58 0 0 1 10.77-.65L296 264a33 33 0 0 1 6.73 6c3.83 4.46 4.71 7.36 4.52 11.43-.18 3.88-3.6 6.21-3.6 6.21a54 54 0 0 0-.46 7.74s1.21 9.55 2.06 19.07c1.15 12.88 2.35 32.47 2.35 32.47s-5.39 5.95-22.48 5.95-24.56-6.45-24.56-6.45.83-6.84 1.66-18.77" style="opacity:.4"/><path d="M280.2 286s2.22 4 8 3.64a8.64 8.64 0 0 0 7.16-4.56s0 5.56-7.1 5.89-8.06-4.97-8.06-4.97" style="opacity:.2"/><path d="M296.61 236.92c1.81.94 2.86 3.25 3.11 11.2.23 7.76-1.71 10.1-3.87 11a11.4 11.4 0 0 1-4.78.51l.09 3.71s3.33 4.31-2.18 4.92a9.79 9.79 0 0 1-9.2-4l-.31-10.18s-1.86 1.58-4.36-.38c-2.07-1.62-2.41-4.85-1-6.5a3.22 3.22 0 0 1 5.3.77c.39.87 2.58 1.72 2.56-1.16s-.88-7.13 2.61-9.42c5.02-.14 6.17 5.26 12.03-.47" style="fill:#b16668"/><path d="m288.43 252.25 4.22 1.24a2.16 2.16 0 0 1-2.69 1.56 2.29 2.29 0 0 1-1.53-2.8" style="fill:#9a4a4d"/><path d="M290.84 255.12a2.32 2.32 0 0 0-2.29-2h-.18a2.27 2.27 0 0 0 1.59 1.94 2 2 0 0 0 .88.06" style="fill:#ffa8a7"/><path d="m298.09 243.2-2.33-.72a1.17 1.17 0 0 1 1.48-.83 1.28 1.28 0 0 1 .85 1.55m-9.89-.38-2.22 1a1.17 1.17 0 0 1 .57-1.6 1.29 1.29 0 0 1 1.65.6" style="fill:#263238"/><path d="m291.58 243.62.48 7.45 3.79-1.56zm-.51 16c-2.54-.19-6.8-.54-9.38-4.21a7.84 7.84 0 0 0 2.58 3.67c2.43 1.52 6.83 1.77 6.83 1.77Z" style="fill:#9a4a4d"/><path d="M289 245.85a1.07 1.07 0 1 1-1.07-1.07 1.07 1.07 0 0 1 1.07 1.07" style="fill:#263238"/><circle cx="296.61" cy="245.36" r="1.07" style="fill:#263238"/><path d="M254 293.76c2.45-8 5.07-14.51 6.9-19.57 2.41-6.63 5.55-7.83 10.5-8.86 2.88 1.67 4.26 8.53.59 16.22-2.28 5.67-7.19 17.52-7.19 17.52.33 1.65 1.85 12.3 3.72 16.77a4.51 4.51 0 0 0 3 2.51c2 .76 3.15 3.15 4.71 4.32 1.23.91 2.1 1.13 2 1.5s-.9.91-2.25.79a6.3 6.3 0 0 1-2.61-.86 7.5 7.5 0 0 0-1.17-.74c-.63-.23-.55.34-.44.75a8.5 8.5 0 0 0 1 2 23.5 23.5 0 0 0 2.13 3.09 11.5 11.5 0 0 0 1.95 1.8 16.4 16.4 0 0 1 2 2c.26.29.68.79.59 1.22s-.78.65-1.22.58-.81-.26-1.23-.3c-.88-.1-1.73.44-2.6.34a8 8 0 0 1-.93-.24 7 7 0 0 0-1.5-.12 3.5 3.5 0 0 1-1.21-.1l-1.15-.46-2.95-1.19a4 4 0 0 1-1.55-1.54 28.4 28.4 0 0 1-3.94-8.45c-1-3.75-4.89-12.47-6.11-17.07-1.99-7.52-2.13-8.49-1.04-11.91" style="fill:#b16668"/></svg>