<svg xmlns="http://www.w3.org/2000/svg" viewBox="0 0 500 500"><path d="M330.18 61.3s-72.73-25.87-144.13 15.31S78.62 199.53 47.69 265 34.56 397.08 89.06 427.45s91.56-14.4 168-16.58 97 8.75 160.47-34.44 74.92-145.2 24.87-220.68S330.18 61.3 330.18 61.3" style="fill:#fc3"/><path d="M330.18 61.3s-72.73-25.87-144.13 15.31S78.62 199.53 47.69 265 34.56 397.08 89.06 427.45s91.56-14.4 168-16.58 97 8.75 160.47-34.44 74.92-145.2 24.87-220.68S330.18 61.3 330.18 61.3" style="fill:#fff;opacity:.7000000000000001"/><path d="M118.68 82.89H39.83l-1.04 10.84h79.89zm0 10.84H39.83l-1.04 10.85h79.89zm0 10.85H39.83l-1.04 10.84h79.89zm0 10.84H39.83l-1.04 10.84h79.89zm0 10.84H39.83l-1.04 10.84h79.89zm0 10.84H39.83l-1.04 10.84h79.89zm0 10.84H39.83l-1.04 10.84h79.89zm0 10.84H39.83l-1.04 10.84h79.89zm0 10.84H39.83l-1.04 10.84h79.89zm0 10.84H39.83l-1.04 10.84h79.89zm0 10.84H39.83l-1.04 10.84h79.89z" style="fill:none;stroke:#263238;stroke-miterlimit:10"/><path d="M118.68 202.14H39.83l-1.04 10.85h79.89zm0 10.85H39.83l-1.04 10.84h79.89zm0 10.84H39.83l-1.04 10.84h79.89zm0 10.84H39.83l-1.04 10.84h79.89zm81.06-151.78h-78.85l-1.04 10.84h79.89zm0 10.84h-78.85l-1.04 10.85h79.89zm0 10.85h-78.85l-1.04 10.84h79.89zm0 10.84h-78.85l-1.04 10.84h79.89zm0 10.84h-78.85l-1.04 10.84h79.89zm0 10.84h-78.85l-1.04 10.84h79.89zm0 10.84h-78.85l-1.04 10.84h79.89zm0 10.84h-78.85l-1.04 10.84h79.89zm0 10.84h-78.85l-1.04 10.84h79.89zm0 10.84h-78.85l-1.04 10.84h79.89zm0 10.84h-78.85l-1.04 10.84h79.89z" style="fill:none;stroke:#263238;stroke-miterlimit:10"/><path d="M199.74 202.14h-78.85l-1.04 10.85h79.89zm0 10.85h-78.85l-1.04 10.84h79.89zm0 10.84h-78.85l-1.04 10.84h79.89zm0 10.84h-78.85l-1.04 10.84h79.89z" style="fill:none;stroke:#263238;stroke-miterlimit:10"/><path d="M36.94 74.5h166.75v8.18H36.94z" style="fill:#263238;stroke:#263238;stroke-miterlimit:10"/><path d="M203.69 82.68v144.03m-1.82-143.8v98.82" style="fill:none;stroke:#263238;stroke-miterlimit:10"/><path d="M202.63 226.39h2.24v3.67h-2.24zm-2.02-45.45h2.24v3.67h-2.24z" style="fill:#263238;stroke:#263238;stroke-miterlimit:10"/><path d="M320.2 73.38h122.14v157.05H320.2z" style="fill:none;stroke:#263238;stroke-miterlimit:10"/><path d="M324.63 79.07h113.28v145.66H324.63z" style="fill:none;stroke:#263238;stroke-miterlimit:10"/><path d="M332.24 79.67s-4.12 27 21.51 44.39 69.09 9.15 83.73 33.86m-112.56 13.26s39.35-32.86 54-9.15c9.61 15.56-34.77 43-34.77 62.69M384 79.67s16.47 25.63 54 18.76" style="fill:none;stroke:#263238;stroke-miterlimit:10"/><circle cx="373.88" cy="106.67" r="15.1" style="fill:none;stroke:#263238;stroke-miterlimit:10"/><circle cx="419.41" cy="127.03" r="7.09" style="fill:none;stroke:#263238;stroke-miterlimit:10"/><path d="M399.41 224.82a29.29 29.29 0 0 1 38.12-44.43" style="fill:none;stroke:#263238;stroke-miterlimit:10"/><path d="M199.15 364.55c.5-47-15.5-81.5-15.5-81.5H32.43l.72 1.19 6 80.58h136.5v45.31h65v-45.58Z" style="fill:#525252;stroke:#263238;stroke-linecap:round;stroke-linejoin:round"/><path d="M90.93 444.87h-5.22a1.35 1.35 0 0 1-1.34-1.27l-2.52-37.46h12.93l-2.52 37.46a1.33 1.33 0 0 1-1.33 1.27m172.57 0h-5.22a1.34 1.34 0 0 1-1.28-1.27l-2.52-37.46h12.93l-2.52 37.46a1.35 1.35 0 0 1-1.39 1.27m-227.89 0h-5.22a1.35 1.35 0 0 1-1.34-1.27l-2.52-37.46h12.93l-2.52 37.46a1.33 1.33 0 0 1-1.33 1.27m172.57 0H203a1.34 1.34 0 0 1-1.34-1.27l-2.52-37.46H212l-2.52 37.46a1.35 1.35 0 0 1-1.3 1.27" style="fill:#fff;stroke:#263238;stroke-linecap:round;stroke-linejoin:round"/><path d="M89.43 410.13v-45.58h-41.5c.5-47-15.5-81.5-15.5-81.5h-5.27a2.73 2.73 0 0 0-2.73 2.74v124.34Z" style="fill:#263238;stroke:#263238;stroke-linecap:round;stroke-linejoin:round"/><path d="M89.43 364.55h175.42a6.42 6.42 0 0 1 6.42 6.42v39.08H89.43z" style="fill:#525252;stroke:#263238;stroke-linecap:round;stroke-linejoin:round"/><circle cx="267" cy="110.33" r="38.5" style="fill:none;stroke:#263238;stroke-linecap:round;stroke-miterlimit:10"/><circle cx="267" cy="110.33" r="34.76" style="fill:none;stroke:#263238;stroke-linecap:round;stroke-miterlimit:10"/><path d="M280.79 114.61 267 110.33l16.33-23.67" style="fill:none;stroke:#263238;stroke-linecap:round;stroke-miterlimit:10"/><circle cx="267" cy="110.33" r="1.95" style="fill:#263238;stroke:#263238;stroke-miterlimit:10"/><circle cx="253.55" cy="92.63" r="7.05" style="fill:none;stroke:#263238;stroke-linecap:round;stroke-miterlimit:10"/><path d="M256.57 104.88a1.51 1.51 0 1 1-1.51-1.51 1.52 1.52 0 0 1 1.51 1.51Z" style="fill:none;stroke:#263238;stroke-linecap:round;stroke-miterlimit:10"/><path d="M305.09 265.73h169.23v6.38H305.09z" style="fill:none;stroke:#263238;stroke-linecap:round;stroke-linejoin:round" transform="matrix(-1 0 0 -1 779.42 537.84)"/><path d="M312.94 272.29h153.54v172.32H312.94z" style="fill:none;stroke:#263238;stroke-linecap:round;stroke-linejoin:round" transform="matrix(-1 0 0 -1 779.42 716.9)"/><path d="M318.46 280.31h142.67v37.39H318.46z" style="fill:none;stroke:#263238;stroke-linecap:round;stroke-linejoin:round" transform="matrix(-1 0 0 -1 779.59 598.01)"/><path d="M382.91 295.56h14.27v6.89h-14.27z" style="fill:#263238;stroke:#263238;stroke-linecap:round;stroke-linejoin:round" transform="matrix(-1 0 0 -1 780.09 598.01)"/><path d="M318.46 327.54h142.67v37.39H318.46z" style="fill:none;stroke:#263238;stroke-linecap:round;stroke-linejoin:round" transform="matrix(-1 0 0 -1 779.59 692.46)"/><path d="M382.91 342.79h14.27v6.89h-14.27z" style="fill:#263238;stroke:#263238;stroke-linecap:round;stroke-linejoin:round" transform="matrix(-1 0 0 -1 780.09 692.46)"/><path d="M318.46 374.98h142.67v37.39H318.46z" style="fill:none;stroke:#263238;stroke-linecap:round;stroke-linejoin:round" transform="matrix(-1 0 0 -1 779.59 787.36)"/><path d="M382.91 390.23h14.27v6.89h-14.27z" style="fill:#263238;stroke:#263238;stroke-linecap:round;stroke-linejoin:round" transform="matrix(-1 0 0 -1 780.09 787.36)"/><path d="M433.65 187.56a332.6 332.6 0 0 1 4.54 53m13.55-52.33s-11.22 19.49-12.28 50.42M460 204.54a142.2 142.2 0 0 0-21.82 39.83" style="fill:none;stroke:#263238;stroke-linecap:round;stroke-linejoin:round"/><path d="M452.8 220.64s-11.65 11.44-14.4 26.48" style="fill:none;stroke:#263238;stroke-linecap:round;stroke-linejoin:round"/><path d="M424.7 219.64s11.66 4.81 13.91 29.17" style="fill:none;stroke:#263238;stroke-linecap:round;stroke-linejoin:round"/><path d="M438.61 241.4c-2.75-23.94-15.42-35-15.42-35m8.9-1.9 6.1 39.87" style="fill:none;stroke:#263238;stroke-linecap:round;stroke-linejoin:round"/><path d="M420.18 194.59s18.14 28.06 19.49 50.62" style="fill:none;stroke:#263238;stroke-linecap:round;stroke-linejoin:round"/><path d="M429.44 206.41c0 .22-.44.43-.47.65s.36.52.31.74-.52.32-.6.53.24.58.14.79-.58.19-.7.38.09.62-.05.8-.61.06-.77.22 0 .63-.21.77-.61-.08-.8 0-.18.6-.39.7-.57-.21-.79-.13-.31.54-.53.59-.51-.33-.74-.31-.42.47-.65.47-.43-.44-.65-.47-.52.36-.74.31-.32-.52-.53-.59-.58.23-.79.13-.19-.58-.38-.7-.62.1-.8 0-.06-.61-.22-.77-.63-.05-.77-.22.08-.61 0-.8-.6-.18-.7-.39.21-.57.13-.78-.54-.31-.59-.54.33-.51.3-.73-.46-.43-.46-.65.44-.43.46-.66-.35-.52-.3-.73.52-.32.59-.54-.23-.58-.13-.78.58-.2.7-.39-.1-.62 0-.8.61-.06.77-.22 0-.63.22-.77.61.08.8 0 .18-.6.38-.7.58.21.79.14.31-.55.53-.6.52.33.74.31.42-.47.65-.47.43.44.65.47.52-.36.74-.31.32.52.53.6.59-.24.79-.14.2.58.39.7.62-.1.8 0 .06.61.22.77.62.05.76.22-.07.61.05.8.6.18.7.39-.21.57-.14.78.55.31.6.54-.33.51-.31.73.47.43.47.66" style="fill:#fff"/><path d="M429.44 206.41c0 .22-.44.43-.47.65s.36.52.31.74-.52.32-.6.53.24.58.14.79-.58.19-.7.38.09.62-.05.8-.61.06-.77.22 0 .63-.21.77-.61-.08-.8 0-.18.6-.39.7-.57-.21-.79-.13-.31.54-.53.59-.51-.33-.74-.31-.42.47-.65.47-.43-.44-.65-.47-.52.36-.74.31-.32-.52-.53-.59-.58.23-.79.13-.19-.58-.38-.7-.62.1-.8 0-.06-.61-.22-.77-.63-.05-.77-.22.08-.61 0-.8-.6-.18-.7-.39.21-.57.13-.78-.54-.31-.59-.54.33-.51.3-.73-.46-.43-.46-.65.44-.43.46-.66-.35-.52-.3-.73.52-.32.59-.54-.23-.58-.13-.78.58-.2.7-.39-.1-.62 0-.8.61-.06.77-.22 0-.63.22-.77.61.08.8 0 .18-.6.38-.7.58.21.79.14.31-.55.53-.6.52.33.74.31.42-.47.65-.47.43.44.65.47.52-.36.74-.31.32.52.53.6.59-.24.79-.14.2.58.39.7.62-.1.8 0 .06.61.22.77.62.05.76.22-.07.61.05.8.6.18.7.39-.21.57-.14.78.55.31.6.54-.33.51-.31.73.47.43.47.66" style="fill:none;stroke:#263238;stroke-linecap:round;stroke-linejoin:round"/><path d="M425.51 206.41a2.32 2.32 0 1 1-2.32-2.32 2.32 2.32 0 0 1 2.32 2.32" style="fill:#fc3"/><path d="M432.17 219.64c0 .27-.53.51-.56.78s.43.62.37.88-.63.38-.72.64.28.7.17.94-.7.23-.84.46.11.75 0 1-.73.07-.92.26-.06.75-.27.92-.72-.09-1 .05-.22.72-.46.84-.69-.25-.95-.16-.37.65-.63.71-.61-.4-.88-.37-.51.56-.78.56-.52-.53-.78-.56-.63.43-.89.37-.38-.62-.63-.71-.7.28-.95.16-.23-.7-.46-.84-.74.12-.95-.05-.07-.73-.26-.92-.76-.05-.92-.26.09-.73-.06-1-.72-.22-.83-.46.25-.69.16-.94-.66-.37-.72-.64.4-.61.37-.88-.55-.51-.55-.78.52-.52.55-.78-.43-.62-.37-.88.63-.39.72-.64-.28-.7-.16-.94.69-.24.83-.46-.11-.75.06-1 .73-.07.92-.26.05-.75.26-.92.73.09 1-.05.21-.73.45-.84.69.25.95.16.37-.66.63-.72.62.4.89.37.5-.55.78-.55.51.52.78.55.62-.42.88-.37.38.63.64.72.7-.28.94-.16.23.69.46.84.74-.12 1 .05.08.73.27.92.75.05.92.26-.1.73 0 1 .72.21.84.46-.25.68-.17.94.66.37.72.64-.4.61-.37.88.52.51.52.78" style="fill:#fff"/><path d="M432.17 219.64c0 .27-.53.51-.56.78s.43.62.37.88-.63.38-.72.64.28.7.17.94-.7.23-.84.46.11.75 0 1-.73.07-.92.26-.06.75-.27.92-.72-.09-1 .05-.22.72-.46.84-.69-.25-.95-.16-.37.65-.63.71-.61-.4-.88-.37-.51.56-.78.56-.52-.53-.78-.56-.63.43-.89.37-.38-.62-.63-.71-.7.28-.95.16-.23-.7-.46-.84-.74.12-.95-.05-.07-.73-.26-.92-.76-.05-.92-.26.09-.73-.06-1-.72-.22-.83-.46.25-.69.16-.94-.66-.37-.72-.64.4-.61.37-.88-.55-.51-.55-.78.52-.52.55-.78-.43-.62-.37-.88.63-.39.72-.64-.28-.7-.16-.94.69-.24.83-.46-.11-.75.06-1 .73-.07.92-.26.05-.75.26-.92.73.09 1-.05.21-.73.45-.84.69.25.95.16.37-.66.63-.72.62.4.89.37.5-.55.78-.55.51.52.78.55.62-.42.88-.37.38.63.64.72.7-.28.94-.16.23.69.46.84.74-.12 1 .05.08.73.27.92.75.05.92.26-.1.73 0 1 .72.21.84.46-.25.68-.17.94.66.37.72.64-.4.61-.37.88.52.51.52.78" style="fill:none;stroke:#263238;stroke-linecap:round;stroke-linejoin:round"/><circle cx="424.7" cy="219.64" r="2.77" style="fill:#fc3"/><path d="M460.27 220.64c0 .27-.52.52-.55.78s.43.62.37.88-.63.39-.72.64.28.7.16.94-.69.24-.83.46.11.75-.06 1-.73.07-.92.26-.05.75-.26.92-.73-.09-.95.05-.22.73-.46.84-.69-.25-.95-.16-.37.66-.63.72-.62-.4-.89-.37-.5.55-.78.55-.51-.52-.78-.55-.62.42-.88.37-.38-.63-.64-.72-.7.28-.94.16-.23-.69-.46-.84-.74.12-1-.05-.08-.73-.27-.92-.75-.05-.92-.26.1-.73 0-1-.72-.21-.84-.46.25-.68.17-.94-.66-.37-.72-.64.4-.61.37-.88-.56-.51-.56-.78.53-.51.56-.78-.43-.62-.37-.88.63-.38.72-.64-.28-.7-.17-.94.7-.23.84-.46-.11-.75 0-1 .73-.07.92-.26.06-.75.27-.92.72.09 1-.05.22-.72.46-.84.69.25.95.16.37-.65.63-.71.61.4.88.37.51-.56.78-.56.52.53.78.56.63-.43.89-.37.38.62.63.71.7-.28.95-.16.23.7.46.84.74-.12.95.05.07.73.26.92.76.05.92.26-.09.73.06 1 .72.22.84.46-.26.69-.17.94.66.37.72.64-.4.61-.37.88.55.51.55.78" style="fill:#fff"/><path d="M460.27 220.64c0 .27-.52.52-.55.78s.43.62.37.88-.63.39-.72.64.28.7.16.94-.69.24-.83.46.11.75-.06 1-.73.07-.92.26-.05.75-.26.92-.73-.09-.95.05-.22.73-.46.84-.69-.25-.95-.16-.37.66-.63.72-.62-.4-.89-.37-.5.55-.78.55-.51-.52-.78-.55-.62.42-.88.37-.38-.63-.64-.72-.7.28-.94.16-.23-.69-.46-.84-.74.12-1-.05-.08-.73-.27-.92-.75-.05-.92-.26.1-.73 0-1-.72-.21-.84-.46.25-.68.17-.94-.66-.37-.72-.64.4-.61.37-.88-.56-.51-.56-.78.53-.51.56-.78-.43-.62-.37-.88.63-.38.72-.64-.28-.7-.17-.94.7-.23.84-.46-.11-.75 0-1 .73-.07.92-.26.06-.75.27-.92.72.09 1-.05.22-.72.46-.84.69.25.95.16.37-.65.63-.71.61.4.88.37.51-.56.78-.56.52.53.78.56.63-.43.89-.37.38.62.63.71.7-.28.95-.16.23.7.46.84.74-.12.95.05.07.73.26.92.76.05.92.26-.09.73.06 1 .72.22.84.46-.26.69-.17.94.66.37.72.64-.4.61-.37.88.55.51.55.78" style="fill:none;stroke:#263238;stroke-linecap:round;stroke-linejoin:round"/><circle cx="452.8" cy="220.64" r="2.77" style="fill:#fc3"/><path d="M448.62 213c0 .27-.52.51-.55.78s.43.62.37.88-.63.38-.72.64.28.7.16.94-.69.23-.83.46.11.74-.06.95-.73.08-.92.27-.05.75-.26.92-.73-.1-.95 0-.22.72-.46.84-.69-.25-.95-.17-.37.66-.63.72-.62-.4-.89-.37-.5.56-.78.56-.51-.53-.78-.56-.62.43-.88.37-.38-.63-.64-.72-.7.28-.94.17-.23-.7-.46-.84-.74.11-.95 0-.08-.73-.27-.92-.75-.06-.92-.27.1-.72-.05-.95-.72-.22-.84-.46.25-.69.17-.95-.66-.37-.72-.63.4-.61.37-.88-.56-.51-.56-.78.53-.52.56-.78-.43-.63-.37-.89.63-.38.72-.63-.28-.7-.17-.95.7-.23.84-.46-.11-.74.05-.95.73-.07.92-.26.06-.76.27-.92.72.09.95-.06.22-.72.46-.84.69.26.95.17.37-.66.63-.72.61.4.88.37.51-.55.78-.55.52.52.78.55.63-.43.89-.37.38.63.63.72.7-.28.95-.16.23.69.46.83.74-.11.95.06.07.73.26.92.76.05.92.26-.09.73.06.95.72.22.84.46-.26.69-.17.95.66.37.72.63-.4.62-.37.89.55.52.55.78" style="fill:#fff"/><path d="M448.62 213c0 .27-.52.51-.55.78s.43.62.37.88-.63.38-.72.64.28.7.16.94-.69.23-.83.46.11.74-.06.95-.73.08-.92.27-.05.75-.26.92-.73-.1-.95 0-.22.72-.46.84-.69-.25-.95-.17-.37.66-.63.72-.62-.4-.89-.37-.5.56-.78.56-.51-.53-.78-.56-.62.43-.88.37-.38-.63-.64-.72-.7.28-.94.17-.23-.7-.46-.84-.74.11-.95 0-.08-.73-.27-.92-.75-.06-.92-.27.1-.72-.05-.95-.72-.22-.84-.46.25-.69.17-.95-.66-.37-.72-.63.4-.61.37-.88-.56-.51-.56-.78.53-.52.56-.78-.43-.63-.37-.89.63-.38.72-.63-.28-.7-.17-.95.7-.23.84-.46-.11-.74.05-.95.73-.07.92-.26.06-.76.27-.92.72.09.95-.06.22-.72.46-.84.69.26.95.17.37-.66.63-.72.61.4.88.37.51-.55.78-.55.52.52.78.55.63-.43.89-.37.38.63.63.72.7-.28.95-.16.23.69.46.83.74-.11.95.06.07.73.26.92.76.05.92.26-.09.73.06.95.72.22.84.46-.26.69-.17.95.66.37.72.63-.4.62-.37.89.55.52.55.78" style="fill:none;stroke:#263238;stroke-linecap:round;stroke-linejoin:round"/><path d="M443.92 213a2.77 2.77 0 1 1-2.77-2.77 2.76 2.76 0 0 1 2.77 2.77" style="fill:#fc3"/><path d="M428.08 195.22c0 .28-.53.52-.56.78s.43.62.37.89-.63.38-.71.63.27.7.16.95-.7.23-.84.46.11.74-.05.95-.73.07-.92.26 0 .75-.27.92-.72-.09-.95.06-.22.72-.46.83-.69-.25-.94-.16-.38.66-.64.72-.61-.4-.88-.37-.51.55-.78.55-.52-.52-.78-.55-.62.43-.89.37-.38-.63-.63-.72-.7.28-.95.16-.23-.69-.46-.84-.74.12-.95-.05-.07-.73-.26-.92-.75 0-.92-.26.09-.73 0-1-.73-.21-.84-.46.25-.68.16-.94-.66-.37-.72-.63.4-.62.37-.89-.55-.5-.55-.78.52-.51.55-.78-.43-.62-.37-.88.63-.38.72-.64-.28-.7-.16-.94.69-.23.84-.46-.12-.74 0-1 .73-.08.92-.27.05-.75.26-.92.73.1 1 0 .21-.72.46-.84.68.25.94.16.37-.65.63-.71.62.4.89.37.5-.56.78-.56.51.53.78.56.62-.43.88-.37.38.63.64.71.7-.27.94-.16.23.7.46.84.74-.11.95 0 .08.73.27.92.75.06.92.27-.09.72.05 1 .72.22.84.46-.25.69-.16.94.65.38.71.64-.4.61-.37.88.52.6.52.82" style="fill:#fff"/><path d="M428.08 195.22c0 .28-.53.52-.56.78s.43.62.37.89-.63.38-.71.63.27.7.16.95-.7.23-.84.46.11.74-.05.95-.73.07-.92.26 0 .75-.27.92-.72-.09-.95.06-.22.72-.46.83-.69-.25-.94-.16-.38.66-.64.72-.61-.4-.88-.37-.51.55-.78.55-.52-.52-.78-.55-.62.43-.89.37-.38-.63-.63-.72-.7.28-.95.16-.23-.69-.46-.84-.74.12-.95-.05-.07-.73-.26-.92-.75 0-.92-.26.09-.73 0-1-.73-.21-.84-.46.25-.68.16-.94-.66-.37-.72-.63.4-.62.37-.89-.55-.5-.55-.78.52-.51.55-.78-.43-.62-.37-.88.63-.38.72-.64-.28-.7-.16-.94.69-.23.84-.46-.12-.74 0-1 .73-.08.92-.27.05-.75.26-.92.73.1 1 0 .21-.72.46-.84.68.25.94.16.37-.65.63-.71.62.4.89.37.5-.56.78-.56.51.53.78.56.62-.43.88-.37.38.63.64.71.7-.27.94-.16.23.7.46.84.74-.11.95 0 .08.73.27.92.75.06.92.27-.09.72.05 1 .72.22.84.46-.25.69-.16.94.65.38.71.64-.4.61-.37.88.52.6.52.82" style="fill:none;stroke:#263238;stroke-linecap:round;stroke-linejoin:round"/><path d="M423.38 195.22a2.77 2.77 0 1 1-2.77-2.77 2.77 2.77 0 0 1 2.77 2.77" style="fill:#fc3"/><path d="M459.21 188.23c0 .28-.52.52-.55.78s.43.62.37.89-.63.38-.72.63.28.7.17.95-.7.23-.84.46.11.74-.06.95-.73.07-.92.26-.05.75-.26.92-.73-.09-.95.06-.22.72-.46.83-.69-.25-.95-.16-.37.66-.63.72-.61-.4-.89-.37-.5.55-.78.55-.51-.52-.77-.55-.63.43-.89.37-.38-.63-.63-.72-.71.28-.95.16-.23-.69-.46-.84-.74.12-1-.05-.07-.73-.27-.92-.75-.05-.92-.26.1-.73 0-1-.72-.21-.84-.46.26-.68.17-.94-.66-.37-.72-.63.4-.62.37-.89-.55-.5-.55-.78.52-.51.55-.78-.43-.62-.37-.88.63-.38.72-.64-.28-.7-.17-.94.7-.23.84-.46-.11-.74.06-1 .73-.07.92-.26.05-.75.26-.92.72.09 1 0 .22-.72.46-.84.69.25.95.16.37-.65.63-.71.61.4.89.37.5-.56.77-.56.52.53.78.56.63-.43.89-.37.38.63.63.71.71-.27.95-.16.23.7.46.84.74-.11.95 0 .07.73.26.92.76.05.93.27-.1.72.05.95.72.22.84.46-.26.69-.17.94.66.38.72.64-.4.61-.37.88.5.63.5.86" style="fill:#fff"/><path d="M459.21 188.23c0 .28-.52.52-.55.78s.43.62.37.89-.63.38-.72.63.28.7.17.95-.7.23-.84.46.11.74-.06.95-.73.07-.92.26-.05.75-.26.92-.73-.09-.95.06-.22.72-.46.83-.69-.25-.95-.16-.37.66-.63.72-.61-.4-.89-.37-.5.55-.78.55-.51-.52-.77-.55-.63.43-.89.37-.38-.63-.63-.72-.71.28-.95.16-.23-.69-.46-.84-.74.12-1-.05-.07-.73-.27-.92-.75-.05-.92-.26.1-.73 0-1-.72-.21-.84-.46.26-.68.17-.94-.66-.37-.72-.63.4-.62.37-.89-.55-.5-.55-.78.52-.51.55-.78-.43-.62-.37-.88.63-.38.72-.64-.28-.7-.17-.94.7-.23.84-.46-.11-.74.06-1 .73-.07.92-.26.05-.75.26-.92.72.09 1 0 .22-.72.46-.84.69.25.95.16.37-.65.63-.71.61.4.89.37.5-.56.77-.56.52.53.78.56.63-.43.89-.37.38.63.63.71.71-.27.95-.16.23.7.46.84.74-.11.95 0 .07.73.26.92.76.05.93.27-.1.72.05.95.72.22.84.46-.26.69-.17.94.66.38.72.64-.4.61-.37.88.5.63.5.86" style="fill:none;stroke:#263238;stroke-linecap:round;stroke-linejoin:round"/><circle cx="451.74" cy="188.23" r="2.77" style="fill:#fc3"/><path d="M452.86 199c0 .27-.53.51-.56.78s.43.62.37.88-.62.38-.71.63.28.71.16.95-.69.23-.84.46.12.74 0 .95-.73.08-.92.27-.05.75-.26.92-.73-.1-1 .05-.21.72-.46.84-.69-.26-.94-.17-.37.66-.64.72-.61-.4-.88-.37-.51.56-.78.56-.51-.53-.78-.56-.62.43-.88.37-.39-.63-.64-.72-.7.28-.94.17-.23-.7-.46-.84-.75.11-1-.05-.07-.73-.26-.93-.75 0-.92-.26.09-.72-.05-.95-.72-.22-.84-.46.25-.69.16-.95-.65-.37-.71-.63.4-.61.37-.88-.56-.51-.56-.78.53-.52.56-.78-.43-.63-.37-.89.62-.38.71-.63-.28-.7-.16-1 .7-.23.84-.46-.12-.74.05-1 .73-.07.92-.26 0-.76.26-.92.73.09 1-.06.21-.72.46-.84.69.26.94.17.37-.66.64-.72.61.4.88.37.51-.55.78-.55.51.52.78.55.62-.43.88-.37.39.63.64.72.7-.28.94-.17.23.7.46.84.75-.11 1 .06.07.73.26.92.75 0 .92.26-.09.73 0 1 .72.22.84.46-.25.69-.16 1 .65.37.71.63-.4.62-.37.89.56.54.56.78" style="fill:#fff"/><path d="M452.86 199c0 .27-.53.51-.56.78s.43.62.37.88-.62.38-.71.63.28.71.16.95-.69.23-.84.46.12.74 0 .95-.73.08-.92.27-.05.75-.26.92-.73-.1-1 .05-.21.72-.46.84-.69-.26-.94-.17-.37.66-.64.72-.61-.4-.88-.37-.51.56-.78.56-.51-.53-.78-.56-.62.43-.88.37-.39-.63-.64-.72-.7.28-.94.17-.23-.7-.46-.84-.75.11-1-.05-.07-.73-.26-.93-.75 0-.92-.26.09-.72-.05-.95-.72-.22-.84-.46.25-.69.16-.95-.65-.37-.71-.63.4-.61.37-.88-.56-.51-.56-.78.53-.52.56-.78-.43-.63-.37-.89.62-.38.71-.63-.28-.7-.16-1 .7-.23.84-.46-.12-.74.05-1 .73-.07.92-.26 0-.76.26-.92.73.09 1-.06.21-.72.46-.84.69.26.94.17.37-.66.64-.72.61.4.88.37.51-.55.78-.55.51.52.78.55.62-.43.88-.37.39.63.64.72.7-.28.94-.17.23.7.46.84.75-.11 1 .06.07.73.26.92.75 0 .92.26-.09.73 0 1 .72.22.84.46-.25.69-.16 1 .65.37.71.63-.4.62-.37.89.56.54.56.78" style="fill:none;stroke:#263238;stroke-linecap:round;stroke-linejoin:round"/><circle cx="445.39" cy="199.04" r="2.77" style="fill:#fc3"/><path d="M438.33 204.5c0 .23-.44.43-.46.65s.36.52.31.74-.53.32-.6.53.23.59.14.79-.59.19-.71.38.1.63 0 .8-.61.06-.77.22 0 .63-.22.77-.61-.08-.8 0-.18.61-.38.7-.58-.21-.79-.13-.31.55-.53.6-.51-.34-.74-.31-.42.46-.65.46-.43-.44-.65-.46-.52.36-.74.31-.32-.53-.53-.6-.59.23-.79.13-.19-.58-.38-.7-.63.1-.8 0-.06-.61-.22-.77-.63 0-.77-.22.08-.61 0-.8-.61-.18-.71-.38.21-.58.14-.79-.55-.31-.6-.53.34-.51.31-.74-.46-.42-.46-.65.44-.43.46-.65-.36-.52-.31-.74.53-.32.6-.53-.23-.59-.14-.79.59-.2.71-.39-.1-.62 0-.79.61-.06.77-.22 0-.63.22-.77.61.07.8-.05.18-.6.38-.7.57.21.79.14.31-.55.53-.6.51.34.74.31.42-.46.65-.46.43.44.65.46.52-.36.74-.31.32.53.53.6.59-.23.79-.14.19.59.38.7.63-.09.8.05.06.61.22.77.63 0 .77.22-.08.6 0 .8.61.18.71.38-.22.57-.14.79.55.31.6.53-.34.51-.31.74.46.42.46.65" style="fill:#fff"/><path d="M438.33 204.5c0 .23-.44.43-.46.65s.36.52.31.74-.53.32-.6.53.23.59.14.79-.59.19-.71.38.1.63 0 .8-.61.06-.77.22 0 .63-.22.77-.61-.08-.8 0-.18.61-.38.7-.58-.21-.79-.13-.31.55-.53.6-.51-.34-.74-.31-.42.46-.65.46-.43-.44-.65-.46-.52.36-.74.31-.32-.53-.53-.6-.59.23-.79.13-.19-.58-.38-.7-.63.1-.8 0-.06-.61-.22-.77-.63 0-.77-.22.08-.61 0-.8-.61-.18-.71-.38.21-.58.14-.79-.55-.31-.6-.53.34-.51.31-.74-.46-.42-.46-.65.44-.43.46-.65-.36-.52-.31-.74.53-.32.6-.53-.23-.59-.14-.79.59-.2.71-.39-.1-.62 0-.79.61-.06.77-.22 0-.63.22-.77.61.07.8-.05.18-.6.38-.7.57.21.79.14.31-.55.53-.6.51.34.74.31.42-.46.65-.46.43.44.65.46.52-.36.74-.31.32.53.53.6.59-.23.79-.14.19.59.38.7.63-.09.8.05.06.61.22.77.63 0 .77.22-.08.6 0 .8.61.18.71.38-.22.57-.14.79.55.31.6.53-.34.51-.31.74.46.42.46.65" style="fill:none;stroke:#263238;stroke-linecap:round;stroke-linejoin:round"/><path d="M434.4 204.5a2.31 2.31 0 1 1-2.31-2.32 2.3 2.3 0 0 1 2.31 2.32" style="fill:#fc3"/><path d="M439.89 187.56c0 .23-.44.43-.46.65s.36.52.31.74-.53.32-.6.53.23.59.14.79-.59.19-.71.38.1.63 0 .8-.61.06-.77.22 0 .63-.22.77-.6-.08-.8 0-.18.61-.38.7-.57-.21-.79-.13-.31.55-.53.6-.51-.34-.74-.31-.42.46-.65.46-.43-.44-.65-.46-.52.36-.74.31-.32-.53-.53-.6-.59.23-.79.13-.19-.58-.38-.7-.63.1-.8 0-.06-.61-.22-.77-.63 0-.77-.22.08-.61 0-.8-.61-.18-.71-.38.22-.58.14-.79-.55-.31-.6-.53.34-.51.31-.74-.46-.42-.46-.65.44-.43.46-.65-.36-.52-.31-.74.53-.32.6-.53-.23-.59-.14-.79.59-.19.71-.39-.1-.62 0-.79.61-.06.77-.22 0-.63.22-.77.61.08.8-.05.18-.6.38-.7.58.21.79.14.31-.55.53-.6.51.34.74.31.42-.46.65-.46.43.44.65.46.52-.36.74-.31.32.53.53.6.59-.23.79-.14.19.59.38.71.63-.1.8 0 .06.61.22.77.63 0 .77.22-.08.6.05.8.6.18.7.38-.21.57-.14.79.55.31.6.53-.34.51-.31.74.42.46.42.69" style="fill:#fff"/><path d="M439.89 187.56c0 .23-.44.43-.46.65s.36.52.31.74-.53.32-.6.53.23.59.14.79-.59.19-.71.38.1.63 0 .8-.61.06-.77.22 0 .63-.22.77-.6-.08-.8 0-.18.61-.38.7-.57-.21-.79-.13-.31.55-.53.6-.51-.34-.74-.31-.42.46-.65.46-.43-.44-.65-.46-.52.36-.74.31-.32-.53-.53-.6-.59.23-.79.13-.19-.58-.38-.7-.63.1-.8 0-.06-.61-.22-.77-.63 0-.77-.22.08-.61 0-.8-.61-.18-.71-.38.22-.58.14-.79-.55-.31-.6-.53.34-.51.31-.74-.46-.42-.46-.65.44-.43.46-.65-.36-.52-.31-.74.53-.32.6-.53-.23-.59-.14-.79.59-.19.71-.39-.1-.62 0-.79.61-.06.77-.22 0-.63.22-.77.61.08.8-.05.18-.6.38-.7.58.21.79.14.31-.55.53-.6.51.34.74.31.42-.46.65-.46.43.44.65.46.52-.36.74-.31.32.53.53.6.59-.23.79-.14.19.59.38.71.63-.1.8 0 .06.61.22.77.63 0 .77.22-.08.6.05.8.6.18.7.38-.21.57-.14.79.55.31.6.53-.34.51-.31.74.42.46.42.69" style="fill:none;stroke:#263238;stroke-linecap:round;stroke-linejoin:round"/><path d="M436 187.56a2.31 2.31 0 1 1-2.31-2.32 2.3 2.3 0 0 1 2.31 2.32" style="fill:#fc3"/><path d="M466.08 205.56c0 .23-.44.43-.46.65s.36.52.31.74-.53.32-.6.53.23.59.13.79-.58.19-.7.38.1.63 0 .8-.61.06-.77.22 0 .63-.22.77-.61-.08-.8 0-.18.61-.38.7-.58-.21-.79-.13-.31.55-.53.6-.51-.34-.74-.31-.42.46-.65.46-.43-.44-.65-.46-.52.36-.74.31-.32-.53-.53-.6-.59.23-.79.13-.2-.58-.39-.7-.62.1-.79 0-.06-.61-.22-.77-.63 0-.77-.22.07-.61 0-.8-.6-.18-.7-.38.21-.58.14-.79-.55-.31-.6-.53.33-.51.31-.74-.46-.42-.46-.65.43-.43.46-.65-.36-.52-.31-.74.52-.32.6-.53-.23-.59-.14-.79.58-.2.7-.39-.09-.62 0-.8.61 0 .77-.21 0-.63.22-.77.6.07.79-.05.19-.6.39-.7.57.21.79.14.31-.55.53-.6.51.33.74.31.42-.46.65-.46.43.43.65.46.52-.36.74-.31.32.52.53.6.59-.24.79-.14.19.58.38.7.63-.09.8.05.06.61.22.77.63 0 .77.22-.08.6 0 .79.61.19.7.39-.21.57-.13.79.55.31.6.53-.34.51-.31.74.46.42.46.65" style="fill:#fff"/><path d="M466.08 205.56c0 .23-.44.43-.46.65s.36.52.31.74-.53.32-.6.53.23.59.13.79-.58.19-.7.38.1.63 0 .8-.61.06-.77.22 0 .63-.22.77-.61-.08-.8 0-.18.61-.38.7-.58-.21-.79-.13-.31.55-.53.6-.51-.34-.74-.31-.42.46-.65.46-.43-.44-.65-.46-.52.36-.74.31-.32-.53-.53-.6-.59.23-.79.13-.2-.58-.39-.7-.62.1-.79 0-.06-.61-.22-.77-.63 0-.77-.22.07-.61 0-.8-.6-.18-.7-.38.21-.58.14-.79-.55-.31-.6-.53.33-.51.31-.74-.46-.42-.46-.65.43-.43.46-.65-.36-.52-.31-.74.52-.32.6-.53-.23-.59-.14-.79.58-.2.7-.39-.09-.62 0-.8.61 0 .77-.21 0-.63.22-.77.6.07.79-.05.19-.6.39-.7.57.21.79.14.31-.55.53-.6.51.33.74.31.42-.46.65-.46.43.43.65.46.52-.36.74-.31.32.52.53.6.59-.24.79-.14.19.58.38.7.63-.09.8.05.06.61.22.77.63 0 .77.22-.08.6 0 .79.61.19.7.39-.21.57-.13.79.55.31.6.53-.34.51-.31.74.46.42.46.65" style="fill:none;stroke:#263238;stroke-linecap:round;stroke-linejoin:round"/><path d="M462.15 205.56a2.32 2.32 0 1 1-2.31-2.32 2.3 2.3 0 0 1 2.31 2.32" style="fill:#fc3"/><path d="M444.48 226.32c0 .22-.44.43-.47.65s.36.52.31.74-.52.32-.6.53.24.58.14.79-.58.19-.7.38.09.62-.05.8-.61.06-.77.22 0 .63-.22.77-.6-.08-.79 0-.18.6-.39.7-.57-.21-.79-.13-.31.54-.53.59-.51-.33-.74-.3-.42.46-.65.46-.43-.44-.65-.46-.52.35-.74.3-.32-.52-.53-.59-.59.23-.79.13-.19-.58-.38-.7-.62.1-.8 0-.06-.61-.22-.77-.63 0-.77-.22.08-.61 0-.8-.61-.18-.7-.38.21-.58.13-.79-.54-.31-.59-.53.33-.52.3-.74-.46-.43-.46-.65.44-.43.46-.66-.35-.52-.3-.73.52-.32.59-.53-.23-.59-.13-.79.58-.2.7-.39-.1-.62 0-.8.61-.06.77-.22 0-.62.22-.76.61.07.8-.05.18-.6.38-.7.58.21.79.14.31-.55.53-.6.51.33.74.31.42-.47.65-.47.43.44.65.47.52-.36.74-.31.32.52.53.6.59-.24.79-.14.2.58.39.7.62-.09.8.05.06.61.21.77.63 0 .77.21-.07.61.05.8.6.18.7.39-.21.57-.14.79.55.31.6.53-.33.51-.31.73.47.43.47.66" style="fill:#fff"/><path d="M444.48 226.32c0 .22-.44.43-.47.65s.36.52.31.74-.52.32-.6.53.24.58.14.79-.58.19-.7.38.09.62-.05.8-.61.06-.77.22 0 .63-.22.77-.6-.08-.79 0-.18.6-.39.7-.57-.21-.79-.13-.31.54-.53.59-.51-.33-.74-.3-.42.46-.65.46-.43-.44-.65-.46-.52.35-.74.3-.32-.52-.53-.59-.59.23-.79.13-.19-.58-.38-.7-.62.1-.8 0-.06-.61-.22-.77-.63 0-.77-.22.08-.61 0-.8-.61-.18-.7-.38.21-.58.13-.79-.54-.31-.59-.53.33-.52.3-.74-.46-.43-.46-.65.44-.43.46-.66-.35-.52-.3-.73.52-.32.59-.53-.23-.59-.13-.79.58-.2.7-.39-.1-.62 0-.8.61-.06.77-.22 0-.62.22-.76.61.07.8-.05.18-.6.38-.7.58.21.79.14.31-.55.53-.6.51.33.74.31.42-.47.65-.47.43.44.65.47.52-.36.74-.31.32.52.53.6.59-.24.79-.14.2.58.39.7.62-.09.8.05.06.61.21.77.63 0 .77.21-.07.61.05.8.6.18.7.39-.21.57-.14.79.55.31.6.53-.33.51-.31.73.47.43.47.66" style="fill:none;stroke:#263238;stroke-linecap:round;stroke-linejoin:round"/><path d="M440.55 226.32a2.32 2.32 0 1 1-2.32-2.32 2.32 2.32 0 0 1 2.32 2.32" style="fill:#fc3"/><path d="M432.38 265.67h14.4c6.71-4.49 11.42-15 11.42-27.36a45.5 45.5 0 0 0-.7-8h-35.84a46.4 46.4 0 0 0-.7 8c.04 12.32 4.72 22.87 11.42 27.36" style="fill:#fff;stroke:#263238;stroke-linecap:round;stroke-linejoin:round"/><path d="M11 444.72h483.33" style="fill:none;stroke:#263238;stroke-linecap:round;stroke-linejoin:round"/><path d="M427.51 444.76h-3.46a.88.88 0 0 1-.88-.84l-2.74-28.54h10.7l-2.74 28.54a.88.88 0 0 1-.88.84m33.33 0h-3.45a.89.89 0 0 1-.89-.84l-2.74-28.54h10.7l-2.73 28.54a.9.9 0 0 1-.89.84m-54.33 0h-3.46a.88.88 0 0 1-.88-.84l-2.74-28.54h10.7l-2.74 28.54a.88.88 0 0 1-.88.84m-34.67 0h-3.45a.89.89 0 0 1-.89-.84l-2.74-28.54h10.7l-2.73 28.54a.9.9 0 0 1-.89.84" style="fill:#fff;stroke:#263238;stroke-linecap:round;stroke-linejoin:round"/><path d="M422.3 416.55h-68.52s-7-23.4-12.46-46-11.68-51-5.06-56.84 24.13 4.28 37.37 7 16-.39 24.92-9.74 16.74-24.53 31.92-34.26 26.48-11.29 37-4.67a36.3 36.3 0 0 1 11.29 24.14c.78 15.18-3.5 34.26-8.95 44.77s-47.51 75.6-47.51 75.6" style="fill:#525252;stroke:#263238;stroke-linecap:round;stroke-linejoin:round"/><path d="M431.93 373.72h-74s-13.34-13.34-15.34-45.34" style="fill:none;stroke:#263238;stroke-linecap:round;stroke-linejoin:round"/><path d="m380.19 244.31 8.38 5.12s-5.82 31.89-4.42 48.65 8.38 32.83 8.38 32.83H370s-8.38-20-12.1-34 2.79-46.79 2.79-46.79Z" style="fill:#757575;stroke:#263238;stroke-linecap:round;stroke-linejoin:round"/><path d="m321.83 299.43-5.83-4.66s-2.79-8.61-4.88-11.17-5.59-2.56-9.55-3-6.52-1.86-6.75-.23a3 3 0 0 0 1.86 3.26c1.17.46 4.66 2.09 4.66 2.09a6.4 6.4 0 0 1-2.8 1.17c-1.16 0-5.26-3.51-7.82-4.44s-4.42-2.33-4.19-1.17 6 12.13 7.59 14 2.8 1.4 6.75 2.79 5.12 1.86 5.12 1.86l4 1.17 9.08 8.61Z" style="fill:#fff;stroke:#263238;stroke-linecap:round;stroke-linejoin:round"/><path d="M292.5 294.31s-7.08-7.84-7-9.95-.18-11.06.78-11.17 2.34.08 2 4 1.84 5.84 2.21 6.59-.09 5.61-.09 5.61Z" style="fill:#fff;stroke:#263238;stroke-linecap:round;stroke-linejoin:round"/><path d="M291.09 292.69s-1.6-4.2-2.07-6.26-2.87-10.68-2-11 2.29-.49 3 3.41.07 9.3.61 9.94a22 22 0 0 0 2.58 2.05Z" style="fill:#fff;stroke:#263238;stroke-linecap:round;stroke-linejoin:round"/><path d="M292.74 295.24s-3.42-4.68-3.66-6.77-.11-10.66.82-10.9 1.72 2.71 2 6.67.42 6.34.89 7a21 21 0 0 0 2.32 2.33Z" style="fill:#fff;stroke:#263238;stroke-linecap:round;stroke-linejoin:round"/><path d="M307.87 299.89s-11.18-1.63-13.27-2.56-3.26-4.19-3.26-5.12-.93-10.94-.93-11.64.7-1.86 1.86-1.16 2.09 7.68 2.09 7.68l7 5.82s5.82.47 7.21 2.1" style="fill:#fff;stroke:#263238;stroke-linecap:round;stroke-linejoin:round"/><path d="M355.75 254.55s-3.72.7-4.65 2.8-7 49.58-7 49.58l-25.37-11.41-6.52 14s40 20.25 43.3 20.95 11.17 1.63 14.43-.93-9.11-13.27-11.36-23.13c-5.33-23.33-4.66-39.33-4.66-39.33s6.49-15.32 1.83-12.53" style="fill:#fc3;stroke:#263238;stroke-linecap:round;stroke-linejoin:round"/><path d="M350.63 281.79s5.82 23.28 8.38 29.56 7.68 16.76 7.68 16.76l5.59.93s-11.64-25.14-13.73-35.15 2.56-35.38 2.79-36.31-1.63-6.75-5.12-5.59" style="fill:#fc3;stroke:#263238;stroke-linecap:round;stroke-linejoin:round"/><path d="m361.11 275.27 6.75 16.99 7.21-18.15-8.61-6.75z" style="fill:#fff;stroke:#263238;stroke-linecap:round;stroke-linejoin:round"/><path d="m359.48 261.54-2.56 19.78 10.94-8.38z" style="fill:#fff;stroke:#263238;stroke-linecap:round;stroke-linejoin:round"/><path d="M344.58 210.56s-5.12 12.1-4.89 14.2 1.16 5.58.23 7.91-6.28 5.12-5.35 7.45 4 3.49 4 3.49 0 10.94 2.32 13.74 14.67 0 14.67 0l11.17 16.29 16.06-29.1-2.32-4.88s4.19-18.16-4.66-26.31-27.74-6.28-31.23-2.79" style="fill:#fff;stroke:#263238;stroke-linecap:round;stroke-linejoin:round"/><path d="M367.16 238.72s.23 8.15-4.42 11.18" style="fill:#fff;stroke:#263238;stroke-linecap:round;stroke-linejoin:round"/><path d="M345.74 231.62c0 1.1-.41 2-.93 2s-.93-.88-.93-2 .42-2 .93-2 .93.91.93 2" style="fill:#263238"/><path d="M343 226.15s3.72-4 6.05.47" style="fill:none;stroke:#263238;stroke-linecap:round;stroke-linejoin:round"/><path d="M348.07 204s-8.85 2.79-6.05 6.05 4 3 10.47 2.1 11.64 2.32 7.92 4.89-7.22 3.72-5.12 6 5.58 4 5.12 5.82-.24 3.49 1.16 3.49 2.33-1.63 3.49-3.49 5.12-4.89 6.29 1.16-1.86 8.61-3 8.61h-1.16s4 4.66 7.21 3.73a24.7 24.7 0 0 0 6.06-2.79s6.51-8.15 5.82-17.23-4.89-14.9-14.9-18.39-23.31.05-23.31.05" style="fill:#263238;stroke:#263238;stroke-linecap:round;stroke-linejoin:round"/><path d="m381.82 242.91-15.36 29.8 9.78 10.29s8.38-22.58 9.31-28.16 1.63-9.55 1.63-9.55Z" style="fill:#fff;stroke:#263238;stroke-linecap:round;stroke-linejoin:round"/><path d="M372.93 327.05s-45-2.33-50.67 0-7 8.33-6.33 14.33 4 41.34 5.33 51.34 2 22.33 1 24.66-4 6.34-3 8.67 2.67 3.33 2.67 4.33-1.34 2.67-1.34 2.67-12.33 5.33-16.66 7-4.67 3-3.67 3.67 21.67 0 25.33 0 10.67-2.34 10.67-2.34v1.67h9v-6.33a54 54 0 0 0-.33-6s1.66-4.34 1.33-6-2.33-5.34-3-8.67 0-8 .33-11.67a28.4 28.4 0 0 0-.33-8c-.33-2 2-38.33 2-38.33s26.33 8 29 8.33 24.33 8.34 33.33 6-3.66-30.66-13.66-40.33-21-5-21-5" style="fill:#263238;stroke:#263238;stroke-linecap:round;stroke-linejoin:round"/><path d="M391.26 323.72s-29.67 2.33-33 5.66-2.33 10-2.33 14.34 4 62 4.33 65.33-3.33 6.67-2 9a15.4 15.4 0 0 1 2 6c0 1-9 8.33-12.67 10.33s-14 4.34-15.66 6-1.34 3 1.66 4 28 0 28 0 3.67 0 5-1a9.2 9.2 0 0 1 2.34-1.33l.33 2.23h13a94 94 0 0 0 1.33-10.9 54 54 0 0 0-1-8.33 10.47 10.47 0 0 0 1.67-6c-.33-3-2.67-4.33-2.67-6.33s2-8 1.67-11.67-.67-8-.67-8l3-29.33s20 11 29.67 10 12.33-2.34 15-7 2.67-24.34-1.67-32-28.33-14.67-37.33-11" style="fill:#263238;stroke:#263238;stroke-linecap:round;stroke-linejoin:round"/><path d="M387.18 245.24s-7 17.46-7.68 27.94.23 34.91 2.79 41.9 3.72 11.4 3.72 11.4 23.28 3.49 26.31 4.66 9.31 10.24 10.47 17.92c.34 2.22.58 4.6.75 6.88a57.4 57.4 0 0 1-1.17 15.57c-.2.95-.24 1.75.06 2 .93.93 13.4-4.7 17.59-19.13s2.09-31.43-1.63-39.34-18.16-55.13-24.39-61.42-26.82-8.38-26.82-8.38" style="fill:#fc3;stroke:#263238;stroke-linecap:round;stroke-linejoin:round"/><path d="m350.86 303.2-7.45-3.95s-5.12-4.66-6.28-6.06-4.42-1.86-7-2.09-7.45-1.4-7.92-.23.23 1.86 1.4 2.32 5.59 1.4 6.05 2.1.93 1.16-.46 1.86-7.69.93-8.38.93-8.39-3.26-10-3-.47 1.63.93 2.79 7.21 6.75 8.14 8.38 7 4.19 9.78 4.66 13.5.69 13.5.69l6.52 1.63Z" style="fill:#fff;stroke:#263238;stroke-linecap:round;stroke-linejoin:round"/><path d="M396.72 258s-6.75 6.52-7 13.51 0 9.77 0 10.94.46 24.9.46 24.9L349.7 302l-2.79 18 56.79 13s4.66.7 7-2.79 8.15-52.84 8.15-52.84" style="fill:#fc3;stroke:#263238;stroke-linecap:round;stroke-linejoin:round"/><path d="M401.12 310.47a12 12 0 0 1 1.89 1.81m-12.81-4.89a18.45 18.45 0 0 1 8.51 1.61m-4.32.72s5.82 1.63 7.22 5.59" style="fill:none;stroke:#263238;stroke-linecap:round;stroke-linejoin:round"/><path d="M422.3 416.55s1.17-41.7 11.68-68.95 16.74-30.76 21-29.59 10.51 8.57 14.41 3.5 9.73-19.07 7.39-31.53-7-14.8-9.34-17.91 10.12 4.28 15.57 12.46 5.45 28 2.34 48.66-10.9 79.08-13.63 81.42-9.34 2.33-9.34 2.33h-35.8Z" style="fill:#263238;stroke:#263238;stroke-linecap:round;stroke-linejoin:round"/><path d="M228.93 279.85s8.75 44.25 7.75 51.5-23.5 20.25-35.5 20.5-21-2.75-22.75-7.75 2-28.75 2-28.75-6.5-47.5-5.75-49.75 3-3.5 7.25-3.75 20.75-2.5 20.75-2.5l24.25 2" style="fill:#fc3;stroke:#263238;stroke-linecap:round;stroke-linejoin:round"/><path d="M219.72 209.29s4.86 7.88 5.55 10.42 2.32 5.79 4.17 6.25 3.24.93 2.32 3.24a9.94 9.94 0 0 1-3.48 3.94s-.23 11.58-.69 13-12.5 1.85-12.5 1.85l-1.85 29.63L190.78 260l4.16-50.24s12.74-9.26 24.78-.47" style="fill:#fff;stroke:#263238;stroke-linecap:round;stroke-linejoin:round"/><path d="M223.86 224.8c.26 1.12 0 2.14-.54 2.27s-1.23-.68-1.49-1.8 0-2.13.54-2.26 1.23.67 1.49 1.79" style="fill:#263238"/><path d="M219.25 223.19a5.62 5.62 0 0 1 5.1-1.63" style="fill:none;stroke:#263238;stroke-linecap:round;stroke-linejoin:round"/><path d="M221.57 205.59s-3.24 10.88-6 20.6-4.4 13.66-3.94 17.6 3.94 20.37 3.94 20.37-7.18 2.32-18.29.93a61.4 61.4 0 0 1-20.14-6.48s1.16-11.12 1.85-21.77 3-26.62 8.1-30.79 27.3-6.05 34.48-.46" style="fill:#263238;stroke:#263238;stroke-linecap:round;stroke-linejoin:round"/><path d="M214.93 300.85s-14-3.25-17.75-4-15.5 6.5-18 8.5-3 4.25 2.5 3.75 23.25-4.25 23.25-4.25l10.75 2Z" style="fill:#fff;stroke:#263238;stroke-linecap:round;stroke-linejoin:round"/><path d="M206.18 298.1s11.75-4 14.25-4 12.75 3.5 12.75 3.5l-7 1.5h-6.25l-13 10.25-3.5-10.25Z" style="fill:#fff;stroke:#263238;stroke-linecap:round;stroke-linejoin:round"/><path d="M188.18 262.35s-14.5-1.75-18-1-5.5 6.75-5.5 8.75-4 53.5-4.25 57.5 3.75 7.25 7.25 7.25 44.75-18.5 44.75-18.5l-6.25-18.25-25 8.75 2-32.25m33-14.25c1.25 0 11.5-.75 13.75 1.5 2 2 17 37 20.69 45.61a1.72 1.72 0 0 1-1.2 2.35l-33.49 7.54-2.5-16.75 19.75-3-6.75-24.25" style="fill:#fc3;stroke:#263238;stroke-linecap:round;stroke-linejoin:round"/><path d="M237.55 305.4s-40.85 15.25-51.21 22.44-12.94 15-12.94 22.73 8.6 14.67 21.6 14.67c8.93 0 36.54-29.06 36.54-29.06s1.15 11.51 5.18 19.28 25 32.5 27.33 35.67 11.22 16.4 12.08 17.26 4.6.29 5.75-.86 19.56-17.84 21-21.29 1.73-5.47 0-5.18-18.41 5.18-21.57 5.18H277s-10.35-14.39-13.23-23.88-11.8-33.66-16.4-44.59-7.23-12.66-9.82-12.37" style="fill:#fff;stroke:#263238;stroke-linecap:round;stroke-linejoin:round"/><path d="M264.56 364.73c-.32-.82-.6-1.61-.83-2.37-2.88-9.49-11.8-33.66-16.4-44.59s-7.19-12.66-9.78-12.37c0 0-40.85 15.25-51.21 22.44s-12.94 15-12.94 22.73 8.6 14.67 21.6 14.67c8.93 0 36.54-29.06 36.54-29.06s1.15 11.51 5.18 19.28c2.12 4.09 8.94 12.88 15.27 20.76Z" style="fill:#263238;stroke:#263238;stroke-linecap:round;stroke-linejoin:round"/><path d="M302.85 381.06c-1.72.29-18.41 5.18-21.57 5.18H277l-.13-.19a3.6 3.6 0 0 0 .13 2.49 14.4 14.4 0 0 0 2.59 4l-9.06 7.9c2.66 3.87 5.17 7.48 5.61 7.92.86.86 4.6.29 5.75-.86s19.56-17.84 21-21.29 1.69-5.44-.04-5.15" style="fill:none;stroke:#263238;stroke-linecap:round;stroke-linejoin:round"/><path d="M204.75 362.36s-1.15-13.81 8.63-22.73 22.44-8.91 25 2.31-4.89 60.72-6.9 69.93-2.87 16.7-2.87 16.7c-.07 1.2 5.05 4.51 10.93 7.48 6.91 3.49 8.92 5.18 8.06 6.9s-5.18 1.73-12.37 1.44-18.7 1.15-20.14 0-1.72-3.74-1.15-8.34a61.7 61.7 0 0 1 2.59-10.36s1.14-34.56-.3-45.49-2-18.13-2-18.13-2.86 2.3-9.48.29" style="fill:#fff;stroke:#263238;stroke-linecap:round;stroke-linejoin:round"/><path d="M235.26 444.39c7.19.29 11.51.29 12.37-1.44s-1.15-3.41-8.06-6.9c-5.65-2.85-10.58-6-10.9-7.32-.95.58-2 1.46-2 2.43v3.74l-12.09-2c-.24 1.07-.44 2.17-.57 3.2-.57 4.6-.29 7.19 1.15 8.34s12.91-.33 20.1-.05" style="fill:#fff;stroke:#263238;stroke-linecap:round;stroke-linejoin:round"/><path d="M232.8 405.56c2.83-14.35 7.79-54.17 5.61-63.62-2.59-11.22-15.24-11.22-25-2.31s-11.67 23-11.67 23a19.77 19.77 0 0 0 12.54-.6s.57 7.2 2 18.13c.53 4 .63 20.29.55 25.4a34.9 34.9 0 0 0 15.97 0" style="fill:#263238;stroke:#263238;stroke-linecap:round;stroke-linejoin:round"/><path d="M206.06 347.16a27.5 27.5 0 0 0-1.17 3.49m34.27 1.42s-.7-27.92-11.9-28c-6.78-.06-14.45 9.77-18.91 18.23" style="fill:none;stroke:#737373;stroke-linecap:round;stroke-linejoin:round"/><path d="M270 444.72h-76.84a2 2 0 0 1-2-2.22l9.54-89.68a2 2 0 0 1 2-1.79l67.26-.12a2 2 0 0 1 1.41.59 2 2 0 0 1 .59 1.41v89.81a2 2 0 0 1-1.96 2m-74.59-4H268v-85.8l-63.5.08Z" style="fill:#525252;stroke:#263238;stroke-linecap:round;stroke-linejoin:round"/><path d="M347.25 444.72h-76.81a2 2 0 0 1-2-2v-89.81a2 2 0 0 1 2-2l67.26.12a2 2 0 0 1 2 1.79l9.54 89.68a2 2 0 0 1-.51 1.55 2 2 0 0 1-1.48.67m-74.81-4H345L335.91 355l-63.47-.11Z" style="fill:#525252;stroke:#263238;stroke-linecap:round;stroke-linejoin:round"/><path d="M267.65 352.91h5.18v91.55h-5.18z" style="fill:#525252;stroke:#263238;stroke-linecap:round;stroke-linejoin:round"/><path d="M269.33 317.69a13.5 13.5 0 0 0-1.51-5.54c-1.38-2.26-6.42-3.9-9.06-2.77a38 38 0 0 0-3.9 1.89 29.8 29.8 0 0 1 7.43 3.52 18.7 18.7 0 0 0 7.04 2.9m5.28 1.63a12.9 12.9 0 0 1-3.52-6.92c-.5-4 3.78-10.31 3.78-10.31a45 45 0 0 1 3.39 8.43c1.26 4.53-3.65 8.8-3.65 8.8m5.79-1.25s-.75-3.78.63-6.42 5-2.39 8.68-1.26a20.6 20.6 0 0 0 4.78 1.13 54.4 54.4 0 0 1-7.92 4.41 49 49 0 0 1-6.17 2.14" style="fill:#fc3"/><path d="M274.65 331.62a.32.32 0 0 1-.33-.32v-18a.33.33 0 0 1 .33-.33.32.32 0 0 1 .32.33v18a.32.32 0 0 1-.32.32m1.51 0h-.05a.33.33 0 0 1-.27-.37c.06-.45 1.58-11.11 6.74-17a.34.34 0 0 1 .46 0 .33.33 0 0 1 0 .46c-5 5.77-6.58 16.58-6.59 16.69a.32.32 0 0 1-.29.22m-3.02-.25a.32.32 0 0 1-.32-.33c0-.1.05-10.34-6-15.21a.33.33 0 1 1 .41-.51c6.34 5.07 6.29 15.3 6.28 15.73a.32.32 0 0 1-.37.32m5.03-.13h-.08a.31.31 0 0 1-.23-.39 20.7 20.7 0 0 1 2.94-6.15.32.32 0 0 1 .46-.07.33.33 0 0 1 .07.45 20.7 20.7 0 0 0-2.85 5.93.31.31 0 0 1-.31.23" style="fill:#263238"/><path d="M280.15 326.24s-.13-3.52 1.38-4 2.9.75 4 1.51 2.39 1.51 2.39 3.77a42.4 42.4 0 0 1-.88 6.42s-1.26-3.9-3.4-5.66a8.84 8.84 0 0 0-3.49-2.04" style="fill:#fc3"/><path d="M270.87 331.37a.34.34 0 0 1-.31-.23 11.5 11.5 0 0 0-3.28-4.87.32.32 0 0 1-.06-.46.33.33 0 0 1 .46-.05 11.87 11.87 0 0 1 3.5 5.19.31.31 0 0 1-.21.4.16.16 0 0 1-.1.02" style="fill:#263238"/><path d="M269.33 327.37a5.25 5.25 0 0 0-.75-3.9c-1.26-1.63-4.28-1.25-5.79.51s-3.65 7-3.65 7a12 12 0 0 1 6.54-2.39c3.52.04 3.65-1.22 3.65-1.22" style="fill:#fc3"/><path d="M279.36 350.66h-10.05l-5.02-16.61h20.09zm-15.12-19.36h20.19v2.75h-20.19z" style="fill:#263238;stroke:#263238;stroke-linecap:round;stroke-linejoin:round"/><path d="M197.73 350.55h144.96v4.72H197.73z" style="fill:#fff;stroke:#263238;stroke-linecap:round;stroke-linejoin:round"/><path d="M148.93 260.19s5 10.5 8.25 19.25 9.5 37.5 7.25 39-9.75 4.25-13.75-.75-11.25-27-11.25-27l5.25-17.25" style="fill:#fc3;stroke:#263238;stroke-linecap:round;stroke-linejoin:round"/><path d="m151.27 278.45-8.14 18.85-19.27 34.05s-27.86.86-31.86 1.5-20.35 3.43-24.63 5.78-7.29 4.72-7.93 3.65-2.35-4.07-1.71-7.07S63 327.28 65 323s19-62.33 19.45-65.32 3-7.71 7.71-10.93 25.7-7.71 25.7-7.71a105.6 105.6 0 0 1 14.78 6.64c5.78 3.43 11.14 7.5 13.49 10.5s7.28 15.82 7.28 15.82" style="fill:#fc3;stroke:#263238;stroke-linecap:round;stroke-linejoin:round"/><path d="m90.45 326.29 2 .47m-25.23 0s5.46-3.34 19-1.24m-24.93 12.3s2-4.74 15.41-5.14" style="fill:none;stroke:#263238;stroke-linecap:round;stroke-linejoin:round"/><path d="m140.35 253.82.64 13.49-6.64-7.49z" style="fill:#fff;stroke:#263238;stroke-linecap:round;stroke-linejoin:round"/><path d="m125.79 227.69-4.07 9.85 8.58 12.14.84 15.71 14.35-18.21-16.06-22.27z" style="fill:#fff;stroke:#263238;stroke-linecap:round;stroke-linejoin:round"/><path d="M130.67 238.82s5.55 12.82 8.8 15.69l4.79-6.12-13-12.83Z" style="fill:#263238;stroke:#263238;stroke-linecap:round;stroke-linejoin:round"/><path d="M165.41 213.56s-.86 12.2-1.93 13.49-2.78 1.93-2.78 2.57.85 8.14.21 9.42S156 241 156 241s-4.49 10.92-6.21 12-11.35-5.56-14.35-8.78-5.56-5.78-5.56-7.49v-3.86l.21-8.78s-.43-12.21 3.21-15.21 21.85-1.07 24.2-.21 7.91 4.89 7.91 4.89" style="fill:#fff;stroke:#263238;stroke-linecap:round;stroke-linejoin:round"/><path d="M157.91 226.19a10.26 10.26 0 0 0-6.42-2.35" style="fill:none;stroke:#263238;stroke-linecap:round;stroke-linejoin:round"/><ellipse cx="153.2" cy="229.62" rx="2.14" ry=".86" style="fill:#263238" transform="rotate(-70.1 153.651 229.79)"/><path d="m132.85 224.48 2.79.64s1.28-6.21 2.78-6.42 6 1.28 6.21-.65-1.71-6.21-.43-7.28 18.21 2.79 19.28 3.43 2.36 2.14 5.57-1.29 3.21-9.42 1.5-13.06-4.5-3.43-6-1.07a9.8 9.8 0 0 1-2.57 3s-4.5-10.28-7.71-8.36a8.26 8.26 0 0 0-3.85 4.72s-12.85-4.72-20.14-1.5-8.13 10.06-8.13 16.49 2.35 15.63 3.21 16.06 4.92-.21 5.35-.86Z" style="fill:#263238;stroke:#263238;stroke-linecap:round;stroke-linejoin:round"/><path d="M133.5 228.12s1.71-8.35-1.5-10.71-5.14 3.21-4.5 8.35 3.43 5.14 3.43 5.14m-9 .43 12.21 22.7-7.5 13.28-11.78-28.48zm25.8 39.27v-4.46s-2.45-4.23-2.45-6.46-.45-8-.45-8 .9-1.12 1.79-.67l.89.44s2-3.12 3.79-3.79 5.35-1.56 6 0a6 6 0 0 1 .66 3.57c-.22.67 2.9 4.24 3.35 5.35s.22 3.34.22 4.9-3.12 6.91-4.23 8.47-3.57 6.24-3.57 6.24Z" style="fill:#fff;stroke:#263238;stroke-linecap:round;stroke-linejoin:round"/><path d="m147.51 251.43 2.26 1.53a7 7 0 0 0 1.65-3" style="fill:none;stroke:#263238;stroke-linecap:round;stroke-linejoin:round"/><path d="m141.71 275.28 5.58-6.46 8.69 6.24-4.46 8.47z" style="fill:#fff;stroke:#263238;stroke-linecap:round;stroke-linejoin:round"/><path d="M86.64 258s-6.8 17.79-5.16 21.45 5.21 4.63 9.64 13.74c11.47 23.6 23.16 36.43 25.81 36s33.6-38.29 34.75-40.62 2.95-4.94 1.93-6.43-9.9-8.79-12.12-8.61-22.29 23.85-22.29 23.85l-15.79-39.41s-2.83-1.78-8.57 1.83" style="fill:#fc3;stroke:#263238;stroke-linecap:round;stroke-linejoin:round"/><path d="M119.2 297.35a89 89 0 0 0-5.22 9.82m-3.98-3.43a13 13 0 0 0-1.29 1.41m7.05-6.15s-1.94 1.43-3.85 3" style="fill:none;stroke:#263238;stroke-linecap:round;stroke-linejoin:round"/><path d="m86.9 288.16-6.97-3.23m57.6 41.55s32.74 0 39.29.88 7.42 7 7 10.47-18.34 86.65-17.46 87.52 11.13 8.51 15.71 9.6 6.11 3.28 6.33 4.59a17.5 17.5 0 0 1-.44 4.36 85.4 85.4 0 0 1-12.22.88c-6.77 0-20.73-2.19-23.57-2.19s-8.51 1.53-9.39-.65 2.19-12.66 3.5-15.28a36.5 36.5 0 0 0 2.83-10.26c.22-2.62 2.84-35.13 2.62-45.39s.87-14.62.87-14.62l-14 3.71Z" style="fill:#fff;stroke:#263238;stroke-linecap:round;stroke-linejoin:round"/><path d="M182.06 435c-4.58-1.09-14.84-8.73-15.71-9.6 0 0-2.41-.87-3.28 0s-1.31 4.37-1.31 4.37a75 75 0 0 1-12.88-2.62l-2.47-.77-.14.33c-1.31 2.62-4.37 13.1-3.5 15.28s6.55.65 9.39.65 16.8 2.19 23.57 2.19a85.4 85.4 0 0 0 12.27-.93 17.5 17.5 0 0 0 .44-4.36c-.27-1.31-1.8-3.49-6.38-4.54" style="fill:#fc3;stroke:#263238;stroke-linecap:round;stroke-linejoin:round"/><path d="M142.77 441.94c.88 2.18 6.55.65 9.39.65s16.8 2.19 23.57 2.19a85.4 85.4 0 0 0 12.27-.88 26 26 0 0 0 .45-3 123 123 0 0 1-21.86-.43 189 189 0 0 1-23.37-3.71c-.54 2.33-.78 4.35-.45 5.18" style="fill:#fff;stroke:#263238;stroke-linecap:round;stroke-linejoin:round"/><path d="M169 412c4.83-21 14.45-71.58 14.77-74.13.43-3.49-.44-9.6-7-10.47s-39.29-.88-39.29-.88l1.1 33.62 14-3.71s-1.09 4.36-.87 14.62c.18 8.33-1.52 35.44-2.28 42.22Z" style="fill:#757575;stroke:#263238;stroke-linecap:round;stroke-linejoin:round"/><path d="M152.59 356.39s4.15-11.35 13.1-15.28M157 345a13.14 13.14 0 0 1 5.46-3.93" style="fill:none;stroke:#263238;stroke-linecap:round;stroke-linejoin:round"/><path d="m148.23 408.76-.22 8.73 21.83-1.52 1.96-8.52z" style="fill:#fff;stroke:#263238;stroke-linecap:round;stroke-linejoin:round"/><path d="M154.93 309.19s-5.5.75-7.5 2.75-10 17.25-10 18.75 8 7.5 10.5 7.75 15.25-14.5 17.25-16.25.25-11.5-.5-14.5" style="fill:#fc3;stroke:#263238;stroke-linecap:round;stroke-linejoin:round"/><path d="M146.18 422.19s3.25-55.25 3.25-70.25 1.25-22.25-3.25-25-53.25 3-64.25 6-21.75 9.75-21.75 9.75 1 13.75 3.5 17.25 11.5 5 16 5h29.75l12-3.25 7.5 65.25s-1.5 16.5-.25 17.5 19 2 25.25 1.75 17 .25 17.5-1.5-.75-6.25-.75-6.25-11.25-4.5-14.75-6.75a93 93 0 0 1-9-7.25Z" style="fill:#fff;stroke:#263238;stroke-linecap:round;stroke-linejoin:round"/><path d="M155.93 431.69a93 93 0 0 1-9-7.25l-.75-2.25s-1.5-.5-3.25 1.75a20.4 20.4 0 0 0-2.75 6.25l-11.39-1.66c-.34 4.17-1.12 15.1-.11 15.91 1.25 1 19 2 25.25 1.75s17 .25 17.5-1.5-.75-6.25-.75-6.25-11.25-4.5-14.75-6.75" style="fill:#fc3;stroke:#263238;stroke-linecap:round;stroke-linejoin:round"/><path d="M171.43 444.69a8.7 8.7 0 0 0-.11-3.29c-13.39 3-37.91.3-43.14-.34 0 1.8.17 3.12.5 3.38 1.25 1 19 2 25.25 1.75s17 .25 17.5-1.5" style="fill:#fff;stroke:#263238;stroke-linecap:round;stroke-linejoin:round"/><path d="m121.43 361.69 6.26 56.49c5.37-1 13.22-2.44 19-3.53.93-13.08 2.71-51.62 2.71-62.71 0-15 1.25-22.25-3.25-25s-53.25 3-64.25 6-21.75 9.75-21.75 9.75 1 13.75 3.5 17.25 11.5 5 16 5h29.75Z" style="fill:#757575;stroke:#263238;stroke-linecap:round;stroke-linejoin:round"/><path d="M132.07 341.53c.81-.79 1.67-1.58 2.61-2.34m-13 21a37 37 0 0 1 7.44-15.39m-4.19 1.39s-5 7-5 11.75" style="fill:none;stroke:#263238;stroke-linecap:round;stroke-linejoin:round"/><path d="m125.18 414.69 1.5 8 21-4v-8.25z" style="fill:#fff;stroke:#263238;stroke-linecap:round;stroke-linejoin:round"/></svg>